<svg version="1.1" id="Layer_1" xmlns="http://www.w3.org/2000/svg" xmlns:xlink="http://www.w3.org/1999/xlink" x="0px" y="0px"
	 width="100%" viewBox="0 0 500 500" enable-background="new 0 0 500 500" xml:space="preserve">
<path fill="#000000" opacity="1.000000" stroke="none" 
	d="
M347.000000,501.000000 
	C231.333359,501.000000 116.166725,501.000000 1.000062,501.000000 
	C1.000041,334.333405 1.000041,167.666794 1.000021,1.000151 
	C167.666550,1.000101 334.333099,1.000101 500.999756,1.000050 
	C500.999817,167.666519 500.999817,334.333038 500.999908,500.999786 
	C449.833344,501.000000 398.666656,501.000000 347.000000,501.000000 
M237.020828,324.971802 
	C237.020828,324.971802 237.103989,324.973877 236.943787,324.444489 
	C236.635086,324.265930 236.326370,324.087372 236.022232,323.980042 
	C236.022232,323.980042 236.090042,323.957825 236.013580,323.229828 
	C235.358688,321.790466 234.703796,320.351074 233.994324,318.187469 
	C233.680725,316.828613 233.367142,315.469727 233.869431,314.030579 
	C235.949356,314.349579 238.265121,315.393341 240.052048,314.811890 
	C242.523026,314.007874 245.133148,312.378601 246.649155,310.335236 
	C247.651688,308.983978 246.839035,306.285980 246.839035,304.161072 
	C245.124298,304.161072 243.828476,304.161072 242.990906,304.161072 
	C241.646881,306.706024 240.449539,308.973206 239.110519,311.508667 
	C234.427673,305.583557 234.845993,294.494507 239.776108,290.785675 
	C240.350418,292.216492 240.595932,293.759735 241.469849,294.746460 
	C242.364792,295.756866 243.875214,296.222198 245.116241,296.926117 
	C245.730347,295.720703 247.049835,294.367035 246.833191,293.336212 
	C246.012146,289.429596 243.465118,287.191833 239.278580,286.982361 
	C235.230118,286.779785 232.157135,288.249786 231.111267,292.254181 
	C230.260132,295.513092 230.084091,298.948334 229.538422,302.801483 
	C228.292450,299.973175 227.179825,297.447571 226.029541,295.004181 
	C226.029541,295.004181 226.097565,294.944458 226.034134,294.208771 
	C225.367035,292.757538 224.699951,291.306305 223.987030,289.438507 
	C223.987030,289.438507 223.840378,289.045959 223.976288,288.393860 
	C223.657608,287.887360 223.338928,287.380829 222.971832,286.456390 
	C222.971832,286.456390 222.834244,286.058807 222.983505,285.328888 
	C222.330276,283.856293 221.677032,282.383698 220.957108,280.460724 
	C220.957108,280.460724 220.817276,280.027435 220.974564,279.395782 
	C220.665482,278.907562 220.356400,278.419312 220.013550,277.997772 
	C220.013550,277.997772 220.078644,277.961090 220.005493,277.203918 
	C219.355408,275.442322 218.705307,273.680695 218.023544,271.992554 
	C218.023544,271.992554 218.093979,271.954651 218.010437,271.162903 
	C216.011551,265.738831 214.012665,260.314728 211.957855,254.473358 
	C211.957855,254.473358 211.819427,254.075745 211.975952,253.346298 
	C211.332123,251.870834 210.688309,250.395386 210.020050,248.989365 
	C210.020050,248.989365 210.088348,248.961868 210.014603,248.165970 
	C208.856689,244.430832 207.698792,240.695709 206.154404,235.713837 
	C202.394348,239.799469 201.828064,243.976639 200.960495,247.981171 
	C200.960495,247.981171 200.945328,247.909119 200.287964,248.261932 
	C196.999451,257.213013 193.698349,266.159515 190.432877,275.118958 
	C189.775269,276.923279 189.508835,278.212311 192.379761,278.474365 
	C193.691513,278.594086 195.386765,280.576599 195.931564,282.070404 
	C200.088425,293.467957 203.930664,304.979828 208.030167,316.398926 
	C209.725555,321.121399 209.490509,325.237427 204.871368,329.125427 
	C217.208328,329.125427 228.888855,329.125427 241.868103,329.125427 
	C239.837128,327.376831 238.984009,326.642303 238.064606,325.910370 
	C238.064606,325.910370 238.096924,325.968323 237.971786,325.420593 
	C237.657379,325.243378 237.342957,325.066193 237.020828,324.971802 
M283.346130,313.810913 
	C285.793518,314.551758 286.044800,313.229675 286.031616,311.223572 
	C285.963989,300.933563 286.022400,290.642700 285.948730,280.352753 
	C285.943573,279.628723 285.228058,278.909760 283.986938,278.031647 
	C282.743622,278.031647 281.500275,278.031647 279.968811,278.031647 
	C279.968811,281.780823 279.968811,284.998657 279.968811,287.956848 
	C278.826447,287.655396 277.907501,287.412903 276.210571,287.038544 
	C273.584412,286.779785 271.160431,286.933533 270.007385,290.698517 
	C269.734650,291.793701 269.461914,292.888855 269.029449,294.819641 
	C269.026672,298.936218 268.405975,303.181885 269.229706,307.125854 
	C269.818420,309.944580 271.780762,313.303253 274.147888,314.716980 
	C277.193817,316.536072 279.342682,313.574097 280.777679,310.811005 
	C280.957611,310.464539 281.563995,310.339569 282.001953,310.796539 
	C282.324707,311.555176 282.647461,312.313782 283.346130,313.810913 
M344.183990,287.045044 
	C343.800110,287.088776 343.416260,287.132477 342.378632,287.031891 
	C341.936707,287.075562 341.494812,287.119232 340.194580,287.369598 
	C340.131744,295.620300 340.046448,303.871033 340.055084,312.121643 
	C340.055695,312.690033 340.757507,313.257690 341.851562,313.968292 
	C342.819702,313.905884 343.787842,313.843506 345.687042,313.778320 
	C345.788483,305.419922 345.911407,297.061615 345.937286,288.703003 
	C345.938843,288.208466 345.159943,287.711517 344.183990,287.045044 
M231.212509,210.346420 
	C231.147827,220.896759 231.066406,231.447083 231.062164,241.997437 
	C231.061920,242.598969 231.693115,243.200775 232.889877,243.953293 
	C234.151566,243.953293 235.413254,243.953293 237.073334,243.953293 
	C237.073334,241.012634 237.073334,238.552261 237.767960,236.321671 
	C242.098251,239.263123 247.167587,237.365112 247.815369,231.976913 
	C248.446304,226.728943 248.629852,221.228912 247.690628,216.080200 
	C247.267258,213.759460 243.780579,211.813431 241.354218,210.189972 
	C240.839081,209.845291 238.889664,211.644257 238.709854,211.757462 
	C240.444199,214.640717 242.397247,216.510086 242.620895,218.567444 
	C242.999603,222.051392 242.055878,225.656281 242.089279,229.206345 
	C242.131546,233.697769 239.714966,232.855133 236.755280,231.218918 
	C236.097351,224.840637 239.332428,218.273621 235.776367,211.339462 
	C234.547653,210.956451 233.318954,210.573441 231.212509,210.346420 
M188.338928,169.738037 
	C191.412262,180.212616 194.485596,190.687210 197.558945,201.161789 
	C198.182297,200.991394 198.805634,200.821014 199.428986,200.650620 
	C196.325882,190.088226 193.222778,179.525818 189.986450,168.154373 
	C186.031128,154.394226 182.075790,140.634079 178.036484,126.014565 
	C179.175156,125.343727 180.320358,124.084633 181.451431,124.097206 
	C188.978439,124.180855 196.502441,124.536453 204.854111,124.942459 
	C215.723373,126.204430 224.658142,131.250351 230.840744,140.082336 
	C234.398163,145.164200 236.397018,151.337082 239.070496,157.943771 
	C239.070496,162.883575 239.070496,167.823395 239.070496,174.193832 
	C240.008331,172.345230 240.928284,171.352386 240.956238,170.334991 
	C241.078339,165.894119 240.941391,161.446121 241.045700,156.223724 
	C240.368393,154.268677 239.686752,152.315125 239.014450,150.358353 
	C234.129272,136.139404 221.294754,123.673752 203.102478,123.016075 
	C190.621323,123.016075 178.140167,123.016075 165.658997,123.016075 
	C165.650467,123.235779 165.641922,123.455475 165.633392,123.675179 
	C168.796814,124.474861 171.960251,125.274536 175.017181,126.994850 
	C175.010880,145.648804 174.985062,164.302780 175.002548,182.956711 
	C175.033783,216.264725 175.091187,249.572708 174.756332,283.615967 
	C171.604340,284.162476 168.452362,284.708954 165.300369,285.255463 
	C165.314819,285.551453 165.329254,285.847443 165.343704,286.143433 
	C172.409836,286.143433 179.475952,286.143433 186.542084,286.143433 
	C184.413040,285.011780 182.230057,285.281219 180.176926,284.882324 
	C179.327164,284.717224 178.755478,283.120728 178.772003,281.829041 
	C181.481888,271.986328 184.191757,262.143616 186.901642,252.300888 
	C186.307617,252.117874 185.713608,251.934860 185.119583,251.751846 
	C182.714325,259.785278 180.309052,267.818695 177.136581,275.482239 
	C177.091064,228.857376 177.040726,182.232529 177.038940,135.607666 
	C177.038910,134.775284 177.621002,133.942856 178.037109,133.884384 
	C181.427795,145.584839 184.818481,157.285309 188.338928,169.738037 
M166.307205,326.241364 
	C165.062973,327.009491 163.818726,327.777618 161.704391,329.082886 
	C170.690552,329.082886 178.588394,329.082886 186.486237,329.082886 
	C186.518341,328.678528 186.550446,328.274139 186.582535,327.869781 
	C185.743011,327.557373 184.903473,327.244995 183.803421,326.304077 
	C181.433533,323.239288 179.063644,320.174530 176.644012,317.045441 
	C173.424103,320.093323 170.210388,323.135376 166.307205,326.241364 
M310.880829,313.976135 
	C313.720093,315.027588 315.058441,314.222534 315.020538,311.013947 
	C314.946198,304.729218 315.069580,298.442108 315.856232,291.995575 
	C320.102478,290.072906 319.914062,293.254395 319.961426,295.739716 
	C320.074219,301.657593 319.997772,307.579071 319.997772,313.586426 
	C321.884216,313.586426 323.362762,313.586426 324.559235,313.586426 
	C325.060669,307.478699 325.428772,301.772308 326.066895,296.096283 
	C326.223419,294.704254 327.262238,293.411438 327.895416,292.072998 
	C328.981049,293.051880 330.066681,294.030731 330.998260,295.935059 
	C330.998260,301.846466 330.998260,307.757904 330.998260,313.745361 
	C332.809479,313.745361 334.211578,313.745361 335.728241,313.745361 
	C337.398987,305.579681 338.079559,297.663116 334.719360,289.180817 
	C330.368774,285.427338 327.683075,286.024384 325.229736,290.307800 
	C322.845520,289.178467 320.638062,287.531738 318.309174,287.336975 
	C317.424927,287.263000 316.261169,290.530212 314.469330,291.898865 
	C313.692596,289.656982 314.286102,286.130493 309.181885,287.398438 
	C309.118469,295.495911 309.024872,303.593445 309.043854,311.690735 
	C309.045532,312.404938 309.782623,313.117432 310.880829,313.976135 
M363.947876,291.128387 
	C362.268555,285.470032 357.406769,286.626526 353.769623,287.286346 
	C351.906097,287.624390 350.305725,290.940704 349.226227,293.214752 
	C348.865631,293.974457 350.490906,295.676910 351.208374,296.948425 
	C352.457367,296.208496 353.851166,295.630188 354.911774,294.679993 
	C355.840729,293.847809 356.309784,292.511963 357.203430,291.620575 
	C357.345459,291.478882 359.244537,292.445496 359.302063,293.005432 
	C359.430237,294.252991 358.817505,295.557556 358.675140,296.857330 
	C358.531799,298.166199 358.032043,299.931244 358.660919,300.743225 
	C361.300018,304.150726 359.752289,309.311646 354.144012,311.123962 
	C354.606506,308.061005 354.998688,305.583252 355.344269,303.098999 
	C355.441589,302.399323 355.651276,301.523254 355.337341,301.026459 
	C355.130829,300.699677 353.790527,300.605530 353.454590,300.926727 
	C351.861633,302.449585 349.556519,303.967407 349.168549,305.832947 
	C348.621765,308.462311 347.696045,312.515045 351.452576,313.491150 
	C353.638123,314.059082 356.418884,312.332764 358.933350,311.644379 
	C359.195038,311.572723 359.467194,311.539215 359.734467,311.488037 
	C359.654816,311.938538 359.575134,312.389038 359.495453,312.839539 
	C360.980530,313.165405 362.465607,313.491241 364.616699,313.957794 
	C364.767975,313.286530 364.919250,312.615265 365.007782,311.204956 
	C364.952362,310.467743 364.896973,309.730560 364.987213,308.068237 
	C364.668915,302.673004 364.350586,297.277771 363.947876,291.128387 
M114.875748,336.403290 
	C105.053177,336.268097 95.230705,336.116974 85.407669,336.060364 
	C85.042152,336.058289 84.671341,336.977264 84.058945,338.266632 
	C84.040802,339.096313 84.012108,339.925903 84.006172,340.755646 
	C83.959915,347.214233 84.994225,348.301300 91.468010,349.042328 
	C92.412285,349.150421 93.473709,349.752350 94.147270,350.448578 
	C97.281082,353.687683 101.206657,353.877594 104.502831,351.024567 
	C105.572037,350.099121 107.025330,349.199219 108.371719,349.082764 
	C115.065720,348.503845 117.848091,343.531250 114.875748,336.403290 
M71.012680,334.479340 
	C71.626823,334.659943 72.240746,334.997406 72.855148,334.998291 
	C90.333092,335.023468 107.811157,335.032806 125.288895,334.964172 
	C126.278671,334.960297 127.265755,334.270752 128.887604,333.628235 
	C132.354645,329.770355 130.965820,326.391113 127.764999,322.272400 
	C109.403511,322.177612 91.042046,322.071564 72.680435,322.035797 
	C72.050888,322.034576 71.419968,322.738525 70.108452,323.449677 
	C68.787453,326.929993 67.352272,330.418854 71.012680,334.479340 
M71.243019,302.755219 
	C89.589508,302.833832 107.935989,302.923767 126.282547,302.944916 
	C126.937790,302.945679 127.593811,302.266571 128.889374,301.637848 
	C132.263412,297.805176 131.176529,294.435242 127.868904,290.363159 
	C109.673370,290.245544 91.477867,290.119751 73.282150,290.055542 
	C72.806976,290.053894 72.329437,290.723602 71.064651,291.054230 
	C68.167419,293.927704 68.078285,298.650177 71.243019,302.755219 
M130.887146,306.402435 
	C110.187706,306.333069 89.488266,306.263733 68.142868,306.405487 
	C63.940636,311.350647 64.243591,315.836945 69.286850,318.795685 
	C88.915245,318.861328 108.543640,318.937164 128.172058,318.947449 
	C128.817734,318.947784 129.463776,318.281433 130.844788,317.981171 
	C135.159088,314.182037 135.150436,312.125000 130.887146,306.402435 
M72.312386,287.800873 
	C90.255875,287.865814 108.199364,287.941589 126.142891,287.951141 
	C126.779541,287.951477 127.416534,287.295990 128.792404,286.526550 
	C128.574081,271.132507 133.140518,257.238800 142.072632,244.776871 
	C147.701828,236.923157 153.922714,229.461868 159.130753,221.344971 
	C168.288895,207.071762 170.598251,191.159058 166.784119,174.872070 
	C159.453110,143.567352 135.648514,123.202263 104.651978,120.094307 
	C84.058868,118.029488 66.014313,125.143402 51.349899,139.378403 
	C40.757122,149.660980 34.375530,162.513153 31.828398,177.457153 
	C28.542074,196.737961 33.839054,213.332520 45.098839,228.633545 
	C50.395973,235.831909 56.036526,242.842072 60.643921,250.467728 
	C66.876259,260.782806 70.450661,272.089569 70.104713,284.393616 
	C70.080933,285.239105 71.313240,286.119873 72.312386,287.800873 
M227.935669,228.832474 
	C226.554901,228.048111 225.174118,227.263763 224.953156,227.138229 
	C222.370605,229.640945 220.695923,231.263840 219.021240,232.886734 
	C218.342880,230.685211 217.577133,228.505096 217.029251,226.271576 
	C216.810760,225.380936 217.073532,224.372253 217.137329,222.977875 
	C220.813400,222.977875 224.229568,222.977875 227.976501,222.977875 
	C227.976501,220.901016 228.330795,219.175934 227.905884,217.670853 
	C226.887451,214.063385 225.704300,210.350449 220.986053,210.023880 
	C217.191269,209.761215 212.997162,210.083832 212.386948,214.510773 
	C211.600510,220.216049 211.529785,226.161240 212.199600,231.880264 
	C212.713455,236.267822 217.278259,238.871033 221.420441,237.901672 
	C225.555161,236.934067 228.656540,234.688782 227.935669,228.832474 
M300.770386,287.277069 
	C292.593231,286.561005 291.396271,286.803101 290.154633,292.522949 
	C289.126740,297.258057 288.956970,302.305939 289.255707,307.163055 
	C289.500763,311.146301 292.279144,313.902557 296.305206,314.954285 
	C300.754242,316.116547 303.142487,312.863983 305.151031,310.015106 
	C305.995667,308.817108 305.636353,305.512146 304.566040,304.513062 
	C302.903656,302.961334 301.334717,304.006195 300.576019,306.589172 
	C300.088257,308.249695 298.173767,309.491180 296.898834,310.920502 
	C296.266754,309.011627 295.443665,307.139862 295.063354,305.182068 
	C294.761719,303.629333 295.002563,301.971222 295.002563,301.465912 
	C299.080719,299.912201 302.370056,298.659027 305.659393,297.405853 
	C304.069794,294.293762 306.376831,289.435120 300.770386,287.277069 
M259.722321,311.383057 
	C260.353638,316.003510 263.532837,313.300446 265.548523,313.827667 
	C265.354553,311.243011 265.083679,309.016296 265.042480,306.785339 
	C264.965637,302.624817 265.342010,298.429626 264.927155,294.309540 
	C264.563812,290.701141 263.315247,287.307556 258.661835,286.986328 
	C252.709366,286.575439 250.187775,287.807800 249.390442,292.414368 
	C249.153000,293.786163 250.382370,295.411835 250.939667,296.921204 
	C252.292816,295.942291 253.791992,295.107147 254.947556,293.933655 
	C255.711899,293.157410 255.983185,291.895691 256.531647,290.731567 
	C263.335876,294.834747 257.057251,297.474182 255.982605,300.580231 
	C257.492126,300.894043 258.696442,301.144409 259.999969,301.415405 
	C259.999969,303.040619 259.999969,304.364288 259.999969,305.687958 
	C259.999969,307.001923 259.999969,308.315887 259.999969,309.529053 
	C254.042175,311.376129 254.042175,311.376129 254.646835,301.033081 
	C251.327026,301.899994 248.207153,303.085052 248.613815,307.056274 
	C248.849701,309.359772 250.001770,312.927490 251.533157,313.409088 
	C253.619278,314.065186 256.460938,312.318848 259.722321,311.383057 
M198.011368,224.149139 
	C198.011368,228.282837 198.011368,232.416550 198.011368,236.737213 
	C199.801422,236.737213 201.188522,236.737213 202.985504,236.737213 
	C202.985504,233.057846 202.419479,229.469406 203.139557,226.160904 
	C203.909546,222.623123 205.784531,219.297119 207.389038,215.981201 
	C208.250092,214.201675 209.556046,212.637421 210.661255,210.976044 
	C210.151657,210.484802 209.642059,209.993576 209.132477,209.502350 
	C207.135162,210.304642 205.137833,211.106949 202.900726,212.005569 
	C201.695450,210.428650 200.109512,208.353699 198.127350,205.760361 
	C196.748108,210.710266 195.474426,215.281311 194.526794,218.682236 
	C196.107025,220.783844 197.058716,222.049545 198.011368,224.149139 
M224.309250,198.011108 
	C235.909424,187.465759 238.406937,183.525864 236.814667,177.293381 
	C230.657074,192.904739 218.959198,201.114868 203.312622,204.474899 
	C211.026505,204.833374 217.704468,202.662155 224.309250,198.011108 
z"/>
<path fill="#D38B46" opacity="1.000000" stroke="none" 
	d="
M71.961403,286.984253 
	C71.313240,286.119873 70.080933,285.239105 70.104713,284.393616 
	C70.450661,272.089569 66.876259,260.782806 60.643921,250.467728 
	C56.036526,242.842072 50.395973,235.831909 45.098839,228.633545 
	C33.839054,213.332520 28.542074,196.737961 31.828398,177.457153 
	C34.375530,162.513153 40.757122,149.660980 51.349899,139.378403 
	C66.014313,125.143402 84.058868,118.029488 104.651978,120.094307 
	C135.648514,123.202263 159.453110,143.567352 166.784119,174.872070 
	C170.598251,191.159058 168.288895,207.071762 159.130753,221.344971 
	C153.922714,229.461868 147.701828,236.923157 142.072632,244.776871 
	C133.140518,257.238800 128.574081,271.132507 127.950241,286.736237 
	C108.725861,286.958679 90.343628,286.971466 71.961403,286.984253 
M91.227066,245.328125 
	C91.384796,245.595749 91.591194,245.818222 91.998764,246.724655 
	C92.016663,247.468689 92.034561,248.212723 91.613876,249.385818 
	C92.040802,250.262222 92.467728,251.138641 93.054779,252.792664 
	C93.066025,253.849823 93.077278,254.906998 92.591316,256.503906 
	C93.002693,258.335297 93.414070,260.166687 93.966789,262.826904 
	C93.933891,264.223694 93.900993,265.620453 93.429337,267.641541 
	C93.896973,270.094574 94.364616,272.547607 94.969910,275.891663 
	C94.969910,278.145966 94.969910,280.400269 94.969910,282.582764 
	C103.608879,283.522552 103.906967,283.265869 104.019249,275.451294 
	C104.031036,274.631104 104.127106,273.812103 104.842216,272.745422 
	C104.862198,270.812561 104.882179,268.879669 104.959343,266.218475 
	C105.018959,265.493683 105.078568,264.768860 105.706253,264.188721 
	C107.983795,261.902252 107.779694,259.834869 105.279732,257.248322 
	C105.581421,255.830338 105.883102,254.412369 106.771492,252.822006 
	C106.802673,251.859421 106.833855,250.896820 106.941170,249.148178 
	C106.996895,248.101242 107.052620,247.054306 107.347137,245.806320 
	C107.518692,245.500427 107.458923,245.234482 107.197388,244.353516 
	C107.524940,243.568527 107.852501,242.783524 108.697258,241.873489 
	C108.757980,241.228867 108.818703,240.584259 108.934013,239.293167 
	C108.998772,238.867798 109.063530,238.442429 109.790413,237.782822 
	C110.172264,236.496399 110.554115,235.209991 110.976631,233.992706 
	C110.976631,233.992706 110.903519,233.959732 111.447205,233.703918 
	C111.595879,232.781235 111.744545,231.858566 111.943420,230.220688 
	C112.349731,229.145050 112.756050,228.069427 113.505333,226.699921 
	C113.714287,226.475586 113.865440,226.217392 113.983192,225.989304 
	C113.983192,225.989304 113.916756,225.972931 114.383659,225.591949 
	C114.578094,225.034470 114.772530,224.476974 115.035194,223.455795 
	C115.035194,223.455795 115.171295,223.007294 115.996727,223.003464 
	C117.373184,223.033218 118.749634,223.062973 120.041733,223.798157 
	C118.988884,225.858246 117.936035,227.918335 116.357094,230.102310 
	C116.267731,230.750763 116.178368,231.399216 116.009293,232.816208 
	C115.052719,235.561798 114.096146,238.307404 112.463387,241.190430 
	C112.356033,242.491302 112.248680,243.792191 112.061699,245.821594 
	C111.984581,246.548691 111.907455,247.275787 111.258606,248.156387 
	C111.132011,249.101303 111.005417,250.046204 111.009201,251.486816 
	C110.964661,251.651764 110.920120,251.816711 110.264015,252.171539 
	C110.118263,253.440948 109.972504,254.710373 109.967255,256.849457 
	C109.920227,258.900574 109.873199,260.951660 109.194984,263.219025 
	C109.082047,264.808167 108.969109,266.397339 108.988647,268.817017 
	C108.932533,270.214386 108.876419,271.611755 108.130615,273.288635 
	C106.491943,276.339722 105.826561,279.313171 109.315338,282.724884 
	C112.634285,282.818878 115.956192,282.855042 119.271286,283.024506 
	C122.092506,283.168762 122.843788,281.844147 123.087791,279.147095 
	C123.960739,269.497986 125.888885,259.987213 131.151382,251.721237 
	C138.076706,240.843430 145.293945,230.128296 152.861862,219.688431 
	C163.277374,205.320419 163.726532,189.369385 160.413132,173.082367 
	C157.666763,159.582581 149.650406,148.926956 139.392899,139.882599 
	C124.385864,126.650414 106.581963,123.168884 87.625023,126.387711 
	C70.149101,129.355057 56.641144,139.441177 46.996864,154.248505 
	C31.542912,177.975662 33.560955,208.048447 52.735901,230.588074 
	C59.805344,238.898010 65.643829,248.576706 70.404861,258.423523 
	C73.984108,265.826172 74.946770,274.493958 77.180565,283.003510 
	C79.445244,283.003510 82.286346,283.257172 85.055641,282.920380 
	C87.138062,282.667145 89.128304,281.656006 91.582924,280.348663 
	C91.113205,277.901520 90.643486,275.454346 90.031624,272.194000 
	C89.990875,270.819244 89.950119,269.444489 90.437241,267.441010 
	C90.010895,263.957977 89.584549,260.474915 89.004684,256.355835 
	C88.971016,255.921082 88.937355,255.486313 89.375824,254.584244 
	C88.978035,253.391678 88.580246,252.199112 88.046234,250.335083 
	C88.090309,249.882706 88.134384,249.430328 88.496338,248.611099 
	C88.305115,248.083694 88.113899,247.556305 87.986298,247.007202 
	C87.986298,247.007202 87.963058,247.070267 87.776237,246.659729 
	C87.618446,246.397690 87.413383,246.180237 87.001999,245.368988 
	C86.963974,244.932251 86.925949,244.495529 87.279877,243.705612 
	C86.894485,243.129593 86.509094,242.553574 85.966339,241.361053 
	C85.936752,240.937973 85.907166,240.514908 86.357658,239.610489 
	C85.283768,237.399551 84.209877,235.188629 82.986061,232.379333 
	C82.972229,231.968353 82.958405,231.557358 82.946686,230.376129 
	C81.682159,228.243866 80.417633,226.111618 78.819725,223.351074 
	C77.845024,221.262589 76.870323,219.174103 76.381134,216.708038 
	C77.196068,216.143616 78.011002,215.579193 79.132523,215.636215 
	C80.103539,217.386856 81.074562,219.137512 82.218712,221.311890 
	C82.369675,221.583771 82.571831,221.809891 83.071190,222.595901 
	C83.389168,223.370163 83.707153,224.144424 84.210289,225.325089 
	C84.364067,225.585556 84.563751,225.804077 84.959335,226.442276 
	C84.959335,226.442276 85.026230,226.923019 85.096664,227.523224 
	C85.426613,228.005951 85.756561,228.488663 86.018829,228.988113 
	C86.018829,228.988113 86.045448,228.923676 86.227715,229.337479 
	C86.382843,229.602341 86.587219,229.821228 87.169128,230.636932 
	C87.453171,231.737137 87.737213,232.837357 88.027367,234.617188 
	C88.377884,235.405502 88.728401,236.193817 89.013634,236.992126 
	C89.013634,236.992126 89.030487,236.928268 89.220703,237.337845 
	C89.379181,237.599609 89.584114,237.817719 89.996849,238.762283 
	C90.280876,240.511078 90.564903,242.259872 90.650978,244.257599 
	C90.579178,244.607361 90.725845,244.841660 91.022781,244.978912 
	C91.022781,244.978912 91.039360,244.910233 91.227066,245.328125 
z"/>
<path fill="#FB9352" opacity="1.000000" stroke="none" 
	d="
M220.817276,280.027435 
	C220.817276,280.027435 220.957108,280.460724 220.983643,281.073425 
	C221.618210,283.143677 222.226227,284.601257 222.834244,286.058807 
	C222.834244,286.058807 222.971832,286.456390 223.011917,286.965271 
	C223.314789,287.998077 223.577591,288.522034 223.840378,289.045959 
	C223.840378,289.045959 223.987030,289.438507 223.999664,290.048950 
	C224.707382,292.087769 225.402481,293.516113 226.097565,294.944458 
	C226.097565,294.944458 226.029541,295.004181 226.020584,295.389526 
	C226.421509,298.023804 226.458649,300.428802 227.320816,302.488403 
	C228.985672,306.465576 231.116119,310.247803 233.053543,314.110870 
	C233.367142,315.469727 233.680725,316.828613 234.010742,318.945953 
	C234.714783,321.122223 235.402405,322.540039 236.090042,323.957825 
	C236.090042,323.957825 236.022232,323.980042 236.152374,324.167786 
	C236.556351,324.561615 236.830170,324.767761 237.103989,324.973877 
	C237.103989,324.973877 237.020828,324.971802 237.151184,325.157349 
	C237.553345,325.551392 237.825134,325.759857 238.096924,325.968323 
	C238.096924,325.968323 238.064606,325.910370 237.931976,326.280334 
	C237.293854,327.043976 236.791077,327.776794 236.282440,327.780884 
	C227.535141,327.851074 218.787140,327.831360 210.051575,327.831360 
	C210.674667,324.868469 212.199554,322.074249 211.550995,319.940735 
	C208.518829,309.966217 205.025314,300.122864 201.409836,290.338623 
	C199.696701,285.702545 197.759735,281.036591 195.118164,276.898712 
	C193.555832,274.451416 193.338135,272.856537 194.247650,270.184509 
	C196.744492,262.849335 198.747101,255.345932 200.945312,247.909119 
	C200.945328,247.909119 200.960495,247.981171 201.247894,247.822861 
	C202.816772,245.412735 204.098267,243.160934 205.389618,240.891800 
	C206.985794,243.633224 208.537064,246.297546 210.088348,248.961868 
	C210.088348,248.961868 210.020050,248.989365 210.019257,249.341110 
	C210.618774,251.153824 211.219101,252.614777 211.819427,254.075745 
	C211.819427,254.075745 211.957855,254.473358 211.979843,255.091980 
	C214.032547,261.125275 216.063263,266.539978 218.093979,271.954651 
	C218.093979,271.954651 218.023544,271.992554 218.019897,272.367554 
	C218.703705,274.482086 219.391174,276.221588 220.078644,277.961090 
	C220.078644,277.961090 220.013550,277.997772 220.038513,278.253357 
	C220.314743,279.015137 220.566010,279.521271 220.817276,280.027435 
z"/>
<path fill="#DB8634" opacity="1.000000" stroke="none" 
	d="
M68.924423,317.979065 
	C64.243591,315.836945 63.940636,311.350647 68.815659,306.562744 
	C71.306152,306.819855 73.123329,306.995209 74.941643,307.007843 
	C93.561005,307.137207 112.180550,307.240204 130.800049,307.350525 
	C135.150436,312.125000 135.159088,314.182037 129.999634,317.964417 
	C109.077797,317.958160 89.001106,317.968628 68.924423,317.979065 
z"/>
<path fill="#DB8634" opacity="1.000000" stroke="none" 
	d="
M127.817192,291.300995 
	C131.176529,294.435242 132.263412,297.805176 128.080750,301.743347 
	C108.467857,301.877502 89.663567,301.906158 70.859283,301.934814 
	C68.078285,298.650177 68.167419,293.927704 71.939316,291.069946 
	C91.148376,291.157440 109.482788,291.229218 127.817192,291.300995 
z"/>
<path fill="#DB8634" opacity="1.000000" stroke="none" 
	d="
M127.857857,323.181305 
	C130.965820,326.391113 132.354645,329.770355 128.082062,333.734161 
	C108.472191,333.739197 89.667870,333.638336 70.863556,333.537476 
	C67.352272,330.418854 68.787453,326.929993 70.935394,323.292633 
	C90.460838,323.150818 109.159348,323.166077 127.857857,323.181305 
z"/>
<path fill="#D88738" opacity="1.000000" stroke="none" 
	d="
M114.750648,337.343597 
	C117.848091,343.531250 115.065720,348.503845 108.371719,349.082764 
	C107.025330,349.199219 105.572037,350.099121 104.502831,351.024567 
	C101.206657,353.877594 97.281082,353.687683 94.147270,350.448578 
	C93.473709,349.752350 92.412285,349.150421 91.468010,349.042328 
	C84.994225,348.301300 83.959915,347.214233 84.006172,340.755646 
	C84.012108,339.925903 84.040802,339.096313 84.611618,337.747650 
	C95.026405,337.266968 104.888527,337.305298 114.750648,337.343597 
z"/>
<path fill="#F19962" opacity="1.000000" stroke="none" 
	d="
M227.961945,229.251648 
	C228.656540,234.688782 225.555161,236.934067 221.420441,237.901672 
	C217.278259,238.871033 212.713455,236.267822 212.199600,231.880264 
	C211.529785,226.161240 211.600510,220.216049 212.386948,214.510773 
	C212.997162,210.083832 217.191269,209.761215 220.986053,210.023880 
	C225.704300,210.350449 226.887451,214.063385 227.905884,217.670853 
	C228.330795,219.175934 227.976501,220.901016 227.976501,222.977875 
	C224.229568,222.977875 220.813400,222.977875 217.137329,222.977875 
	C217.073532,224.372253 216.810760,225.380936 217.029251,226.271576 
	C217.577133,228.505096 218.342880,230.685211 219.021240,232.886734 
	C220.695923,231.263840 222.370605,229.640945 224.953156,227.138229 
	C225.174118,227.263763 226.554901,228.048111 227.961945,229.251648 
z"/>
<path fill="#F19962" opacity="1.000000" stroke="none" 
	d="
M233.461487,314.070740 
	C231.116119,310.247803 228.985672,306.465576 227.320816,302.488403 
	C226.458649,300.428802 226.421509,298.023804 226.039398,295.348389 
	C227.179825,297.447571 228.292450,299.973175 229.538422,302.801483 
	C230.084091,298.948334 230.260132,295.513092 231.111267,292.254181 
	C232.157135,288.249786 235.230118,286.779785 239.278580,286.982361 
	C243.465118,287.191833 246.012146,289.429596 246.833191,293.336212 
	C247.049835,294.367035 245.730347,295.720703 245.116241,296.926117 
	C243.875214,296.222198 242.364792,295.756866 241.469849,294.746460 
	C240.595932,293.759735 240.350418,292.216492 239.776108,290.785675 
	C234.845993,294.494507 234.427673,305.583557 239.110519,311.508667 
	C240.449539,308.973206 241.646881,306.706024 242.990906,304.161072 
	C243.828476,304.161072 245.124298,304.161072 246.839035,304.161072 
	C246.839035,306.285980 247.651688,308.983978 246.649155,310.335236 
	C245.133148,312.378601 242.523026,314.007874 240.052048,314.811890 
	C238.265121,315.393341 235.949356,314.349579 233.461487,314.070740 
z"/>
<path fill="#F2975E" opacity="1.000000" stroke="none" 
	d="
M301.073700,287.564301 
	C306.376831,289.435120 304.069794,294.293762 305.659393,297.405823 
	C302.370056,298.659027 299.080719,299.912201 295.002563,301.465912 
	C295.002563,301.971222 294.761719,303.629333 295.063354,305.182068 
	C295.443665,307.139862 296.266754,309.011627 296.898804,310.920502 
	C298.173767,309.491180 300.088257,308.249695 300.576019,306.589172 
	C301.334717,304.006195 302.903656,302.961334 304.566040,304.513062 
	C305.636353,305.512146 305.995667,308.817108 305.151031,310.015106 
	C303.142487,312.863983 300.754242,316.116547 296.305206,314.954285 
	C292.279144,313.902557 289.500763,311.146301 289.255707,307.163055 
	C288.956970,302.305939 289.126740,297.258057 290.154633,292.522949 
	C291.396271,286.803101 292.593231,286.561005 301.073700,287.564301 
M295.006683,295.815155 
	C296.410309,296.710358 297.813934,297.605560 299.217560,298.500763 
	C299.610260,298.022003 300.002930,297.543274 300.395599,297.064545 
	C299.885712,294.997467 299.375793,292.930420 298.865906,290.863342 
	C298.367279,290.885254 297.868652,290.907196 297.370026,290.929108 
	C296.593109,292.283997 295.816193,293.638885 295.006683,295.815155 
z"/>
<path fill="#F2975E" opacity="1.000000" stroke="none" 
	d="
M259.350464,311.492859 
	C256.460938,312.318848 253.619278,314.065186 251.533157,313.409088 
	C250.001770,312.927490 248.849701,309.359772 248.613815,307.056274 
	C248.207153,303.085052 251.327026,301.899994 254.646835,301.033081 
	C254.042175,311.376129 254.042175,311.376129 259.999969,309.529053 
	C259.999969,308.315887 259.999969,307.001923 259.999969,305.687958 
	C259.999969,304.364288 259.999969,303.040619 259.999969,301.415405 
	C258.696442,301.144409 257.492126,300.894043 255.982605,300.580231 
	C257.057251,297.474182 263.335876,294.834747 256.531647,290.731567 
	C255.983185,291.895691 255.711899,293.157410 254.947556,293.933655 
	C253.791992,295.107147 252.292816,295.942291 250.939667,296.921204 
	C250.382370,295.411835 249.153000,293.786163 249.390442,292.414368 
	C250.187775,287.807800 252.709366,286.575439 258.661835,286.986328 
	C263.315247,287.307556 264.563812,290.701141 264.927155,294.309540 
	C265.342010,298.429626 264.965637,302.624817 265.042480,306.785339 
	C265.083679,309.016296 265.354553,311.243011 265.548523,313.827667 
	C263.532837,313.300446 260.353638,316.003510 259.350464,311.492859 
z"/>
<path fill="#F2975E" opacity="1.000000" stroke="none" 
	d="
M364.841553,308.993347 
	C364.896973,309.730560 364.952362,310.467743 364.819763,311.751282 
	C364.404724,312.804108 364.177704,313.310608 363.950684,313.817078 
	C362.465607,313.491241 360.980530,313.165405 359.495453,312.839539 
	C359.575134,312.389038 359.654816,311.938538 359.734467,311.488037 
	C359.467194,311.539215 359.195038,311.572723 358.933350,311.644379 
	C356.418884,312.332764 353.638123,314.059082 351.452576,313.491150 
	C347.696045,312.515045 348.621765,308.462311 349.168549,305.832947 
	C349.556519,303.967407 351.861633,302.449585 353.454590,300.926727 
	C353.790527,300.605530 355.130829,300.699677 355.337341,301.026459 
	C355.651276,301.523254 355.441589,302.399323 355.344269,303.098999 
	C354.998688,305.583252 354.606506,308.061005 354.144012,311.123962 
	C359.752289,309.311646 361.300018,304.150726 358.660919,300.743225 
	C358.032043,299.931244 358.531799,298.166199 358.675140,296.857330 
	C358.817505,295.557556 359.430237,294.252991 359.302063,293.005432 
	C359.244537,292.445496 357.345459,291.478882 357.203430,291.620575 
	C356.309784,292.511963 355.840729,293.847809 354.911774,294.679993 
	C353.851166,295.630188 352.457367,296.208496 351.208374,296.948425 
	C350.490906,295.676910 348.865631,293.974457 349.226227,293.214752 
	C350.305725,290.940704 351.906097,287.624390 353.769623,287.286346 
	C357.406769,286.626526 362.268555,285.470032 363.977356,291.980286 
	C364.285065,298.219269 364.563293,303.606293 364.841553,308.993347 
z"/>
<path fill="#D3A384" opacity="1.000000" stroke="none" 
	d="
M175.123672,126.074211 
	C171.960251,125.274536 168.796814,124.474861 165.633392,123.675179 
	C165.641922,123.455475 165.650467,123.235779 165.658997,123.016075 
	C178.140167,123.016075 190.621323,123.016075 203.575562,123.374023 
	C204.041565,124.089203 204.034500,124.446426 204.027420,124.803650 
	C196.502441,124.536453 188.978439,124.180855 181.451431,124.097206 
	C180.320358,124.084633 179.175156,125.343727 177.836899,126.721237 
	C177.735367,129.322083 177.833420,131.216278 177.931473,133.110458 
	C177.621002,133.942856 177.038910,134.775284 177.038940,135.607666 
	C177.040726,182.232529 177.091064,228.857376 177.548218,276.035217 
	C177.992355,278.450500 178.024841,280.312866 178.057327,282.175201 
	C178.755478,283.120728 179.327164,284.717224 180.176926,284.882324 
	C182.230057,285.281219 184.413040,285.011780 186.542084,286.143433 
	C179.475952,286.143433 172.409836,286.143433 165.343704,286.143433 
	C165.329254,285.847443 165.314819,285.551453 165.300369,285.255463 
	C168.452362,284.708954 171.604340,284.162476 175.195709,282.929749 
	C175.755356,281.426147 175.980652,280.608795 175.980881,279.791382 
	C175.995255,229.977722 175.998352,180.164078 175.952545,130.350449 
	C175.951233,128.924789 175.412048,127.499611 175.123672,126.074211 
z"/>
<path fill="#F2975E" opacity="1.000000" stroke="none" 
	d="
M315.224792,292.274567 
	C316.261169,290.530212 317.424927,287.263000 318.309174,287.336975 
	C320.638062,287.531738 322.845520,289.178467 325.229736,290.307800 
	C327.683075,286.024384 330.368774,285.427338 334.858063,289.987000 
	C334.996765,298.065918 334.996765,305.338684 334.996765,312.611450 
	C334.236633,312.629150 333.476501,312.646851 332.716370,312.664551 
	C332.479218,311.038574 332.151764,309.419769 332.022522,307.785248 
	C331.686066,303.530396 331.436523,299.268616 331.152344,295.009613 
	C330.066681,294.030731 328.981049,293.051880 327.895416,292.072998 
	C327.262238,293.411438 326.223419,294.704254 326.066895,296.096283 
	C325.428772,301.772308 325.060669,307.478699 324.559235,313.586426 
	C323.362762,313.586426 321.884216,313.586426 319.997772,313.586426 
	C319.997772,307.579071 320.074219,301.657593 319.961426,295.739716 
	C319.914062,293.254395 320.102478,290.072906 315.512329,292.100525 
	C315.168427,292.205444 315.224792,292.274567 315.224792,292.274567 
z"/>
<path fill="#F19962" opacity="1.000000" stroke="none" 
	d="
M200.616638,248.085526 
	C198.747101,255.345932 196.744492,262.849335 194.247650,270.184509 
	C193.338135,272.856537 193.555832,274.451416 195.118164,276.898712 
	C197.759735,281.036591 199.696701,285.702545 201.409836,290.338623 
	C205.025314,300.122864 208.518829,309.966217 211.550995,319.940735 
	C212.199554,322.074249 210.674667,324.868469 210.051575,327.831360 
	C218.787140,327.831360 227.535141,327.851074 236.282440,327.780884 
	C236.791077,327.776794 237.293854,327.043976 237.965118,326.279022 
	C238.984009,326.642303 239.837128,327.376831 241.868103,329.125427 
	C228.888855,329.125427 217.208328,329.125427 204.871368,329.125427 
	C209.490509,325.237427 209.725555,321.121399 208.030167,316.398926 
	C203.930664,304.979828 200.088425,293.467957 195.931564,282.070404 
	C195.386765,280.576599 193.691513,278.594086 192.379761,278.474365 
	C189.508835,278.212311 189.775269,276.923279 190.432877,275.118958 
	C193.698349,266.159515 196.999451,257.213013 200.616638,248.085526 
z"/>
<path fill="#EE9E6C" opacity="1.000000" stroke="none" 
	d="
M198.010895,223.732193 
	C197.058716,222.049545 196.107025,220.783844 194.526794,218.682236 
	C195.474426,215.281311 196.748108,210.710266 198.127350,205.760361 
	C200.109512,208.353699 201.695450,210.428650 202.900726,212.005569 
	C205.137833,211.106949 207.135162,210.304642 209.132477,209.502350 
	C209.642059,209.993576 210.151657,210.484802 210.661255,210.976044 
	C209.556046,212.637421 208.250092,214.201675 207.389038,215.981201 
	C205.784531,219.297119 203.909546,222.623123 203.139557,226.160904 
	C202.419479,229.469406 202.985504,233.057846 202.985504,236.737213 
	C201.188522,236.737213 199.801422,236.737213 198.011368,236.737213 
	C198.011368,232.416550 198.011368,228.282837 198.010895,223.732193 
z"/>
<path fill="#F2975E" opacity="1.000000" stroke="none" 
	d="
M237.053268,231.896988 
	C239.714966,232.855133 242.131546,233.697769 242.089279,229.206345 
	C242.055878,225.656281 242.999603,222.051392 242.620895,218.567444 
	C242.397247,216.510086 240.444199,214.640717 238.709854,211.757462 
	C238.889664,211.644257 240.839081,209.845291 241.354218,210.189972 
	C243.780579,211.813431 247.267258,213.759460 247.690628,216.080200 
	C248.629852,221.228912 248.446304,226.728943 247.815369,231.976913 
	C247.167587,237.365112 242.098251,239.263123 237.552689,235.991776 
	C237.185806,234.488342 237.034195,233.314819 236.923492,232.078979 
	C236.964401,232.016663 237.053268,231.896988 237.053268,231.896988 
z"/>
<path fill="#F19962" opacity="1.000000" stroke="none" 
	d="
M270.164856,290.001678 
	C271.160431,286.933533 273.584412,286.779785 276.589600,287.469482 
	C276.661682,289.320343 276.354706,290.740326 275.871887,292.509705 
	C273.436035,298.482269 273.490692,304.118286 275.639771,310.175415 
	C276.820709,309.358978 277.838135,308.655609 279.186890,308.006805 
	C280.352844,308.379913 281.187469,308.698486 282.012085,309.290802 
	C281.992310,309.747009 281.982544,309.929504 281.972778,310.111969 
	C281.563995,310.339569 280.957611,310.464539 280.777679,310.811005 
	C279.342682,313.574097 277.193817,316.536072 274.147888,314.716980 
	C271.780762,313.303253 269.818420,309.944580 269.229706,307.125854 
	C268.405975,303.181885 269.026672,298.936218 269.410095,294.307983 
	C269.915436,292.531433 270.040131,291.266571 270.164856,290.001678 
z"/>
<path fill="#FFDDBD" opacity="1.000000" stroke="none" 
	d="
M175.070435,126.534531 
	C175.412048,127.499611 175.951233,128.924789 175.952545,130.350449 
	C175.998352,180.164078 175.995255,229.977722 175.980881,279.791382 
	C175.980652,280.608795 175.755356,281.426147 175.386353,282.562134 
	C175.091187,249.572708 175.033783,216.264725 175.002548,182.956711 
	C174.985062,164.302780 175.010880,145.648804 175.070435,126.534531 
z"/>
<path fill="#F2975E" opacity="1.000000" stroke="none" 
	d="
M310.023468,287.156616 
	C314.286102,286.130493 313.692596,289.656982 314.847046,292.086731 
	C315.224792,292.274567 315.168427,292.205444 315.139771,292.180725 
	C315.069580,298.442108 314.946198,304.729218 315.020538,311.013947 
	C315.058441,314.222534 313.720093,315.027588 310.476379,313.448364 
	C310.055786,304.332611 310.039642,295.744629 310.023468,287.156616 
z"/>
<path fill="#EE9E6C" opacity="1.000000" stroke="none" 
	d="
M282.022125,309.017059 
	C281.187469,308.698486 280.352844,308.379913 279.272705,307.593597 
	C279.302521,303.310120 279.908447,299.473206 279.665894,295.690735 
	C279.585815,294.441711 277.316223,293.333099 276.047729,292.160278 
	C276.354706,290.740326 276.661682,289.320343 276.978577,287.535400 
	C277.907501,287.412903 278.826447,287.655396 279.968811,287.956848 
	C279.968811,284.998657 279.968811,281.780823 279.968811,278.031647 
	C281.500275,278.031647 282.743622,278.031647 284.463409,278.508728 
	C284.912659,280.323669 284.885437,281.661530 284.656982,282.754211 
	C284.051361,281.849487 283.647003,281.189941 282.483093,279.291412 
	C282.483093,283.882843 282.483093,287.062958 282.483093,290.243042 
	C282.739624,290.287506 282.996124,290.331940 283.252655,290.376373 
	C283.791229,289.255981 284.329803,288.135620 284.920471,287.479675 
	C284.952179,293.625122 284.931854,299.306152 284.692169,304.656372 
	C284.145508,301.486481 283.818176,298.647308 283.490875,295.808167 
	C283.001282,295.852478 282.511719,295.896820 282.022125,295.941132 
	C282.022125,300.299774 282.022125,304.658417 282.022125,309.017059 
z"/>
<path fill="#E7C1A8" opacity="1.000000" stroke="none" 
	d="
M204.440765,124.873055 
	C204.034500,124.446426 204.041565,124.089203 204.038300,123.464157 
	C221.294754,123.673752 234.129272,136.139404 239.014450,150.358353 
	C239.686752,152.315125 240.368393,154.268677 240.671692,156.611969 
	C239.897614,157.006424 239.497528,157.012634 239.097458,157.018860 
	C236.397018,151.337082 234.398163,145.164200 230.840744,140.082336 
	C224.658142,131.250351 215.723373,126.204430 204.440765,124.873055 
z"/>
<path fill="#FB9352" opacity="1.000000" stroke="none" 
	d="
M166.996674,326.177429 
	C170.210388,323.135376 173.424103,320.093323 176.644012,317.045441 
	C179.063644,320.174530 181.433533,323.239288 183.610046,326.887451 
	C179.312897,327.651367 175.205948,327.997894 171.107086,327.919830 
	C169.726395,327.893494 168.366226,326.789093 166.996674,326.177429 
z"/>
<path fill="#FB9352" opacity="1.000000" stroke="none" 
	d="
M235.825211,212.033463 
	C239.332428,218.273621 236.097351,224.840637 236.904266,231.557953 
	C237.053268,231.896988 236.964401,232.016663 236.561569,232.170837 
	C235.492523,235.263000 234.826324,238.201004 234.160110,241.139008 
	C233.063309,232.091202 232.996857,223.165268 233.183060,214.244614 
	C233.198822,213.489517 234.904587,212.769684 235.825211,212.033463 
z"/>
<path fill="#EBC8B0" opacity="1.000000" stroke="none" 
	d="
M223.938507,198.033569 
	C217.704468,202.662155 211.026505,204.833374 203.312622,204.474899 
	C218.959198,201.114868 230.657074,192.904739 236.814667,177.293381 
	C238.406937,183.525864 235.909424,187.465759 223.938507,198.033569 
z"/>
<path fill="#EBC8B0" opacity="1.000000" stroke="none" 
	d="
M177.984283,133.497421 
	C177.833420,131.216278 177.735367,129.322083 177.878891,127.150917 
	C182.075790,140.634079 186.031128,154.394226 189.734589,168.556702 
	C189.058212,168.967941 188.633698,168.976852 188.209167,168.985764 
	C184.818481,157.285309 181.427795,145.584839 177.984283,133.497421 
z"/>
<path fill="#EE9E6C" opacity="1.000000" stroke="none" 
	d="
M235.800781,211.686462 
	C234.904587,212.769684 233.198822,213.489517 233.183060,214.244614 
	C232.996857,223.165268 233.063309,232.091202 234.160110,241.139008 
	C234.826324,238.201004 235.492523,235.263000 236.520660,232.233139 
	C237.034195,233.314819 237.185806,234.488342 237.205383,235.876892 
	C237.073334,238.552261 237.073334,241.012634 237.073334,243.953293 
	C235.413254,243.953293 234.151566,243.953293 232.432739,243.422913 
	C232.013824,231.991821 232.052032,221.091110 232.090256,210.190430 
	C233.318954,210.573441 234.547653,210.956451 235.800781,211.686462 
z"/>
<path fill="#E7C1A8" opacity="1.000000" stroke="none" 
	d="
M188.274048,169.361908 
	C188.633698,168.976852 189.058212,168.967941 189.801208,168.961227 
	C193.222778,179.525818 196.325882,190.088226 199.428986,200.650620 
	C198.805634,200.821014 198.182297,200.991394 197.558945,201.161789 
	C194.485596,190.687210 191.412262,180.212616 188.274048,169.361908 
z"/>
<path fill="#E7C1A8" opacity="1.000000" stroke="none" 
	d="
M178.414673,282.002136 
	C178.024841,280.312866 177.992355,278.450500 177.931824,276.220154 
	C180.309052,267.818695 182.714325,259.785278 185.119583,251.751846 
	C185.713608,251.934860 186.307617,252.117874 186.901642,252.300888 
	C184.191757,262.143616 181.481888,271.986328 178.414673,282.002136 
z"/>
<path fill="#E7C1A8" opacity="1.000000" stroke="none" 
	d="
M130.843597,306.876495 
	C112.180550,307.240204 93.561005,307.137207 74.941643,307.007843 
	C73.123329,306.995209 71.306152,306.819855 69.138641,306.457214 
	C89.488266,306.263733 110.187706,306.333069 130.843597,306.876495 
z"/>
<path fill="#FFEDCF" opacity="1.000000" stroke="none" 
	d="
M69.105637,318.387390 
	C89.001106,317.968628 109.077797,317.958160 129.632050,317.936768 
	C129.463776,318.281433 128.817734,318.947784 128.172058,318.947449 
	C108.543640,318.937164 88.915245,318.861328 69.105637,318.387390 
z"/>
<path fill="#EE9E6C" opacity="1.000000" stroke="none" 
	d="
M331.075317,295.472351 
	C331.436523,299.268616 331.686066,303.530396 332.022522,307.785248 
	C332.151764,309.419769 332.479218,311.038574 332.716370,312.664551 
	C333.476501,312.646851 334.236633,312.629150 334.996765,312.611450 
	C334.996765,305.338684 334.996765,298.065918 335.022339,290.313995 
	C338.079559,297.663116 337.398987,305.579681 335.728241,313.745361 
	C334.211578,313.745361 332.809479,313.745361 330.998260,313.745361 
	C330.998260,307.757904 330.998260,301.846466 331.075317,295.472351 
z"/>
<path fill="#FFDDBD" opacity="1.000000" stroke="none" 
	d="
M71.051147,302.345032 
	C89.663567,301.906158 108.467857,301.877502 127.760803,301.876587 
	C127.593811,302.266571 126.937790,302.945679 126.282547,302.944916 
	C107.935989,302.923767 89.589508,302.833832 71.051147,302.345032 
z"/>
<path fill="#FFDDBD" opacity="1.000000" stroke="none" 
	d="
M70.938118,334.008423 
	C89.667870,333.638336 108.472191,333.739197 127.765305,333.870239 
	C127.265755,334.270752 126.278671,334.960297 125.288895,334.964172 
	C107.811157,335.032806 90.333092,335.023468 72.855148,334.998291 
	C72.240746,334.997406 71.626823,334.659943 70.938118,334.008423 
z"/>
<path fill="#EBC8B0" opacity="1.000000" stroke="none" 
	d="
M127.811432,322.726868 
	C109.159348,323.166077 90.460838,323.150818 71.276016,323.124695 
	C71.419968,322.738525 72.050888,322.034576 72.680435,322.035797 
	C91.042046,322.071564 109.403511,322.177612 127.811432,322.726868 
z"/>
<path fill="#F19962" opacity="1.000000" stroke="none" 
	d="
M344.755981,313.781097 
	C343.787842,313.843506 342.819702,313.905884 341.449097,313.441406 
	C341.048706,304.330658 341.050781,295.746765 341.052887,287.162903 
	C341.494812,287.119232 341.936707,287.075562 342.514893,287.466217 
	C342.651154,295.612793 342.651154,303.325073 342.651154,311.037323 
	C343.837250,309.287109 343.925751,307.456482 344.010498,305.625641 
	C344.267731,300.068481 344.523529,294.511261 344.855469,289.421631 
	C344.872711,297.853149 344.814331,305.817139 344.755981,313.781097 
z"/>
<path fill="#FFDDBD" opacity="1.000000" stroke="none" 
	d="
M127.843048,290.832092 
	C109.482788,291.229218 91.148376,291.157440 72.333481,291.082947 
	C72.329437,290.723602 72.806976,290.053894 73.282150,290.055542 
	C91.477867,290.119751 109.673370,290.245544 127.843048,290.832092 
z"/>
<path fill="#FFFFFF" opacity="1.000000" stroke="none" 
	d="
M72.136894,287.392578 
	C90.343628,286.971466 108.725861,286.958679 127.580719,286.946045 
	C127.416534,287.295990 126.779541,287.951477 126.142891,287.951141 
	C108.199364,287.941589 90.255875,287.865814 72.136894,287.392578 
z"/>
<path fill="#FB9352" opacity="1.000000" stroke="none" 
	d="
M344.779877,288.954041 
	C344.523529,294.511261 344.267731,300.068481 344.010498,305.625641 
	C343.925751,307.456482 343.837250,309.287109 342.651154,311.037323 
	C342.651154,303.325073 342.651154,295.612793 342.841766,287.538361 
	C343.416260,287.132477 343.800110,287.088776 344.511475,287.418274 
	C344.819244,288.179047 344.799561,288.566528 344.779877,288.954041 
z"/>
<path fill="#FFDDBD" opacity="1.000000" stroke="none" 
	d="
M284.858215,282.999359 
	C284.885437,281.661530 284.912659,280.323669 284.891357,278.587158 
	C285.228058,278.909760 285.943573,279.628723 285.948730,280.352753 
	C286.022400,290.642700 285.963989,300.933563 286.031616,311.223572 
	C286.044800,313.229675 285.793518,314.551758 283.460571,313.197693 
	C284.020538,310.052063 284.466034,307.519592 284.911560,304.987152 
	C284.931854,299.306152 284.952179,293.625122 284.958740,287.078552 
	C284.916077,285.141785 284.887146,284.070557 284.858215,282.999359 
z"/>
<path fill="#F19962" opacity="1.000000" stroke="none" 
	d="
M210.051483,248.563919 
	C208.537064,246.297546 206.985794,243.633224 205.389618,240.891800 
	C204.098267,243.160934 202.816772,245.412735 201.211227,247.819550 
	C201.828064,243.976639 202.394348,239.799469 206.154404,235.713837 
	C207.698792,240.695709 208.856689,244.430832 210.051483,248.563919 
z"/>
<path fill="#EE9E6C" opacity="1.000000" stroke="none" 
	d="
M166.651947,326.209412 
	C168.366226,326.789093 169.726395,327.893494 171.107086,327.919830 
	C175.205948,327.997894 179.312897,327.651367 183.740326,327.201721 
	C184.903473,327.244995 185.743011,327.557373 186.582535,327.869781 
	C186.550446,328.274139 186.518341,328.678528 186.486237,329.082886 
	C178.588394,329.082886 170.690552,329.082886 161.704391,329.082886 
	C163.818726,327.777618 165.062973,327.009491 166.651947,326.209412 
z"/>
<path fill="#FB9352" opacity="1.000000" stroke="none" 
	d="
M284.692200,304.656372 
	C284.466034,307.519592 284.020538,310.052063 283.272614,312.828461 
	C282.647461,312.313782 282.324707,311.555176 281.987366,310.454254 
	C281.982544,309.929504 281.992310,309.747009 282.012085,309.290802 
	C282.022125,304.658417 282.022125,300.299774 282.022125,295.941132 
	C282.511719,295.896820 283.001282,295.852478 283.490875,295.808167 
	C283.818176,298.647308 284.145508,301.486481 284.692200,304.656372 
z"/>
<path fill="#EBC8B0" opacity="1.000000" stroke="none" 
	d="
M239.083984,157.481323 
	C239.497528,157.012634 239.897614,157.006424 240.598083,157.000458 
	C240.941391,161.446121 241.078339,165.894119 240.956238,170.334991 
	C240.928284,171.352386 240.008331,172.345230 239.070496,174.193832 
	C239.070496,167.823395 239.070496,162.883575 239.083984,157.481323 
z"/>
<path fill="#FFDDBD" opacity="1.000000" stroke="none" 
	d="
M231.651382,210.268417 
	C232.052032,221.091110 232.013824,231.991821 232.003021,243.347473 
	C231.693115,243.200775 231.061920,242.598969 231.062164,241.997437 
	C231.066406,231.447083 231.147827,220.896759 231.651382,210.268417 
z"/>
<path fill="#FFEDCF" opacity="1.000000" stroke="none" 
	d="
M114.813202,336.873444 
	C104.888527,337.305298 95.026405,337.266968 84.733643,337.347839 
	C84.671341,336.977264 85.042152,336.058289 85.407669,336.060364 
	C95.230705,336.116974 105.053177,336.268097 114.813202,336.873444 
z"/>
<path fill="#F19962" opacity="1.000000" stroke="none" 
	d="
M218.052216,271.558777 
	C216.063263,266.539978 214.032547,261.125275 212.007812,255.300629 
	C214.012665,260.314728 216.011551,265.738831 218.052216,271.558777 
z"/>
<path fill="#FFEDCF" opacity="1.000000" stroke="none" 
	d="
M344.855469,289.421631 
	C344.799561,288.566528 344.819244,288.179047 344.791595,287.503601 
	C345.159943,287.711517 345.938843,288.208466 345.937286,288.703003 
	C345.911407,297.061615 345.788483,305.419922 345.221497,313.779724 
	C344.814331,305.817139 344.872711,297.853149 344.855469,289.421631 
z"/>
<path fill="#EBC8B0" opacity="1.000000" stroke="none" 
	d="
M340.623718,287.266235 
	C341.050781,295.746765 341.048706,304.330658 341.089905,313.370087 
	C340.757507,313.257690 340.055695,312.690033 340.055084,312.121643 
	C340.046448,303.871033 340.131744,295.620300 340.623718,287.266235 
z"/>
<path fill="#E7C1A8" opacity="1.000000" stroke="none" 
	d="
M309.602661,287.277527 
	C310.039642,295.744629 310.055786,304.332611 310.125000,313.375671 
	C309.782623,313.117432 309.045532,312.404938 309.043854,311.690735 
	C309.024872,303.593445 309.118469,295.495911 309.602661,287.277527 
z"/>
<path fill="#EE9E6C" opacity="1.000000" stroke="none" 
	d="
M364.914368,308.530792 
	C364.563293,303.606293 364.285065,298.219269 364.019531,292.357361 
	C364.350586,297.277771 364.668915,302.673004 364.914368,308.530792 
z"/>
<path fill="#F19962" opacity="1.000000" stroke="none" 
	d="
M220.042068,277.582520 
	C219.391174,276.221588 218.703705,274.482086 218.035721,272.330841 
	C218.705307,273.680695 219.355408,275.442322 220.042068,277.582520 
z"/>
<path fill="#F19962" opacity="1.000000" stroke="none" 
	d="
M236.051819,323.593811 
	C235.402405,322.540039 234.714783,321.122223 234.038025,319.308075 
	C234.703796,320.351074 235.358688,321.790466 236.051819,323.593811 
z"/>
<path fill="#F19962" opacity="1.000000" stroke="none" 
	d="
M226.065857,294.576599 
	C225.402481,293.516113 224.707382,292.087769 224.022583,290.257263 
	C224.699951,291.306305 225.367035,292.757538 226.065857,294.576599 
z"/>
<path fill="#F19962" opacity="1.000000" stroke="none" 
	d="
M222.908875,285.693848 
	C222.226227,284.601257 221.618210,283.143677 221.016998,281.298615 
	C221.677032,282.383698 222.330276,283.856293 222.908875,285.693848 
z"/>
<path fill="#F19962" opacity="1.000000" stroke="none" 
	d="
M211.897690,253.711029 
	C211.219101,252.614777 210.618774,251.153824 210.031464,249.306396 
	C210.688309,250.395386 211.332123,251.870834 211.897690,253.711029 
z"/>
<path fill="#EE9E6C" opacity="1.000000" stroke="none" 
	d="
M270.086121,290.350098 
	C270.040131,291.266571 269.915436,292.531433 269.489929,293.890198 
	C269.461914,292.888855 269.734650,291.793701 270.086121,290.350098 
z"/>
<path fill="#EE9E6C" opacity="1.000000" stroke="none" 
	d="
M364.283691,313.887451 
	C364.177704,313.310608 364.404724,312.804108 364.851135,312.120819 
	C364.919250,312.615265 364.767975,313.286530 364.283691,313.887451 
z"/>
<path fill="#F19962" opacity="1.000000" stroke="none" 
	d="
M220.895920,279.711609 
	C220.566010,279.521271 220.314743,279.015137 220.055389,278.220032 
	C220.356400,278.419312 220.665482,278.907562 220.895920,279.711609 
z"/>
<path fill="#F19962" opacity="1.000000" stroke="none" 
	d="
M223.908325,288.719910 
	C223.577591,288.522034 223.314789,287.998077 223.036118,287.174255 
	C223.338928,287.380829 223.657608,287.887360 223.908325,288.719910 
z"/>
<path fill="#F19962" opacity="1.000000" stroke="none" 
	d="
M237.023895,324.709167 
	C236.830170,324.767761 236.556351,324.561615 236.150101,324.132141 
	C236.326370,324.087372 236.635086,324.265930 237.023895,324.709167 
z"/>
<path fill="#F19962" opacity="1.000000" stroke="none" 
	d="
M238.034363,325.694458 
	C237.825134,325.759857 237.553345,325.551392 237.155060,325.115967 
	C237.342957,325.066193 237.657379,325.243378 238.034363,325.694458 
z"/>
<path fill="#000000" opacity="1.000000" stroke="none" 
	d="
M89.909370,268.069733 
	C89.950119,269.444489 89.990875,270.819244 90.033188,273.017670 
	C90.409698,276.221649 90.784637,278.601959 91.159584,280.982269 
	C89.128304,281.656006 87.138062,282.667145 85.055641,282.920380 
	C82.286346,283.257172 79.445244,283.003510 77.180565,283.003510 
	C74.946770,274.493958 73.984108,265.826172 70.404861,258.423523 
	C65.643829,248.576706 59.805344,238.898010 52.735901,230.588074 
	C33.560955,208.048447 31.542912,177.975662 46.996864,154.248505 
	C56.641144,139.441177 70.149101,129.355057 87.625023,126.387711 
	C106.581963,123.168884 124.385864,126.650414 139.392899,139.882599 
	C149.650406,148.926956 157.666763,159.582581 160.413132,173.082367 
	C163.726532,189.369385 163.277374,205.320419 152.861862,219.688431 
	C145.293945,230.128296 138.076706,240.843430 131.151382,251.721237 
	C125.888885,259.987213 123.960739,269.497986 123.087791,279.147095 
	C122.843788,281.844147 122.092506,283.168762 119.271286,283.024506 
	C115.956192,282.855042 112.634285,282.818878 109.142090,281.915039 
	C108.919327,278.406494 108.869812,275.707825 108.820297,273.009125 
	C108.876419,271.611755 108.932533,270.214386 109.089890,268.061371 
	C109.402802,265.871399 109.614479,264.437103 109.826157,263.002777 
	C109.873199,260.951660 109.920227,258.900574 110.058434,256.091858 
	C110.391602,254.216751 110.633591,253.099197 110.875580,251.981659 
	C110.920120,251.816711 110.964661,251.651764 111.067108,250.932022 
	C111.360123,249.585785 111.595230,248.794327 111.830338,248.002884 
	C111.907455,247.275787 111.984581,246.548691 112.408722,245.254532 
	C112.883690,243.475983 113.011635,242.264481 113.139572,241.052994 
	C114.096146,238.307404 115.052719,235.561798 116.332283,232.298553 
	C116.731247,231.180069 116.807220,230.579239 116.883186,229.978424 
	C117.936035,227.918335 118.988884,225.858246 120.361404,223.295807 
	C121.062981,221.863098 121.444878,220.932739 121.980392,219.687317 
	C123.700554,216.920868 125.267097,214.469498 126.967575,211.703552 
	C126.955803,207.338882 126.955803,207.338882 122.956047,208.968933 
	C122.990181,208.987854 122.952530,208.919479 122.711395,208.968185 
	C122.470261,209.016891 122.004639,209.175827 121.661118,209.099075 
	C120.912796,208.795700 120.135063,208.416336 120.156403,208.364227 
	C121.604362,204.828720 118.505272,204.119568 116.562752,203.489212 
	C115.785744,203.237076 114.239922,205.505859 112.979378,206.548996 
	C111.738724,207.575653 110.416168,208.503357 108.575089,209.892960 
	C108.210373,207.843903 108.367889,206.447189 107.743896,205.742142 
	C106.733261,204.600204 105.298592,203.519852 103.865738,203.194885 
	C103.126823,203.027283 101.218559,204.512665 101.187286,205.304428 
	C101.004326,209.936005 98.115105,209.095322 94.699928,208.685623 
	C97.673973,204.704697 94.314888,203.262833 92.058640,203.318512 
	C90.547821,203.355789 89.110779,206.382980 86.937813,208.880035 
	C86.765579,208.880035 85.130569,208.880035 83.543259,208.880035 
	C83.231827,207.060013 82.929337,205.292236 82.652588,203.674881 
	C78.226860,203.367615 75.516228,204.326050 75.642487,208.835739 
	C73.897461,208.758102 72.501282,208.758102 69.995392,208.758102 
	C72.608742,212.446548 74.252182,214.766083 75.895615,217.085617 
	C76.870323,219.174103 77.845024,221.262589 79.030334,224.011749 
	C80.475494,226.830399 81.710037,228.988388 82.944580,231.146378 
	C82.958405,231.557358 82.972229,231.968353 83.112762,233.037994 
	C84.118828,235.828369 84.998207,237.960098 85.877579,240.091827 
	C85.907166,240.514908 85.936752,240.937973 85.998497,241.977844 
	C86.316406,243.082703 86.602165,243.570740 86.887917,244.058792 
	C86.925949,244.495529 86.963974,244.932251 87.066368,245.945251 
	C87.408173,246.704453 87.685616,246.887360 87.963058,247.070267 
	C87.963058,247.070267 87.986298,247.007202 87.991196,247.344543 
	C88.056885,248.113907 88.117668,248.545929 88.178459,248.977951 
	C88.134384,249.430328 88.090309,249.882706 88.043045,251.034210 
	C88.327805,252.839417 88.615746,253.945480 88.903687,255.051559 
	C88.937355,255.486313 88.971016,255.921082 89.020279,257.123413 
	C89.327034,261.283905 89.618202,264.676819 89.909370,268.069733 
z"/>
<path fill="#000000" opacity="1.000000" stroke="none" 
	d="
M90.848938,244.008667 
	C90.564903,242.259872 90.280876,240.511078 89.929337,238.120361 
	C89.584709,237.295029 89.307602,237.111649 89.030487,236.928268 
	C89.030487,236.928268 89.013634,236.992126 89.008041,236.639099 
	C88.675392,235.503235 88.348328,234.720398 88.021255,233.937561 
	C87.737213,232.837357 87.453171,231.737137 87.031036,230.055023 
	C86.610443,229.289963 86.327942,229.106812 86.045448,228.923676 
	C86.045448,228.923676 86.018829,228.988113 86.006905,228.666809 
	C85.672066,227.871338 85.349152,227.397186 85.026230,226.923019 
	C85.026230,226.923019 84.959335,226.442276 84.909424,225.954956 
	C84.581383,225.284653 84.303261,225.101669 84.025139,224.918686 
	C83.707153,224.144424 83.389168,223.370163 82.989685,222.028122 
	C82.620644,221.269623 82.333107,221.078888 82.045578,220.888153 
	C81.074562,219.137512 80.103539,217.386856 79.001228,215.029480 
	C78.531784,213.948273 78.193634,213.473785 77.957344,212.598022 
	C79.645088,211.814072 81.239609,211.075485 82.815285,211.113708 
	C88.102646,211.241989 93.384834,211.913284 98.666130,211.882675 
	C106.082718,211.839706 113.496742,211.354034 120.943573,211.405640 
	C120.031960,213.507004 119.088638,215.260437 117.994354,217.325729 
	C116.952698,219.427505 116.061996,221.217392 115.171295,223.007294 
	C115.171295,223.007294 115.035194,223.455795 114.715271,223.818420 
	C114.235817,224.778351 114.076286,225.375641 113.916756,225.972931 
	C113.916756,225.972931 113.983192,225.989304 113.725464,226.040344 
	C113.365936,226.392197 113.264153,226.692993 113.162369,226.993790 
	C112.756050,228.069427 112.349731,229.145050 111.623314,230.751160 
	C111.169975,232.174332 111.036751,233.067032 110.903519,233.959732 
	C110.903519,233.959732 110.976631,233.992706 110.653107,234.116516 
	C109.929153,235.499222 109.528717,236.758148 109.128281,238.017059 
	C109.063530,238.442429 108.998772,238.867798 108.636261,239.761871 
	C108.285683,240.819885 108.232864,241.409210 108.180054,241.998520 
	C107.852501,242.783524 107.524940,243.568527 107.124237,244.928116 
	C107.070175,245.670929 107.089264,245.839142 107.108353,246.007370 
	C107.052620,247.054306 106.996895,248.101242 106.605011,249.715988 
	C106.240829,251.187332 106.212814,252.090851 106.184784,252.994385 
	C105.883102,254.412369 105.581421,255.830338 105.153450,258.043793 
	C105.064171,260.574188 105.101181,262.309143 105.138184,264.044067 
	C105.078568,264.768860 105.018959,265.493683 104.597855,266.804077 
	C104.218941,269.257324 104.201508,271.124939 104.184074,272.992554 
	C104.127106,273.812103 104.031036,274.631104 104.019249,275.451294 
	C103.906967,283.265869 103.608879,283.522552 94.969910,282.582764 
	C94.969910,280.400269 94.969910,278.145966 94.971222,275.033020 
	C94.604378,271.788635 94.236237,269.402954 93.868095,267.017242 
	C93.900993,265.620453 93.933891,264.223694 93.965256,262.012726 
	C93.671989,259.453735 93.380257,257.708954 93.088524,255.964157 
	C93.077278,254.906998 93.066025,253.849823 93.015610,252.056305 
	C92.668442,250.532211 92.360458,249.744476 92.052467,248.956757 
	C92.034561,248.212723 92.016663,247.468689 91.937874,246.100098 
	C91.597778,245.287094 91.318573,245.098663 91.039368,244.910217 
	C91.039360,244.910233 91.022781,244.978912 91.005707,244.729340 
	C90.988625,244.479767 90.848930,244.008667 90.848938,244.008667 
z"/>
<path fill="#CF8C4B" opacity="1.000000" stroke="none" 
	d="
M77.855492,212.999313 
	C78.193634,213.473785 78.531784,213.948273 78.847931,214.718750 
	C78.011002,215.579193 77.196068,216.143616 76.138382,216.896820 
	C74.252182,214.766083 72.608742,212.446548 69.995392,208.758102 
	C72.501282,208.758102 73.897461,208.758102 75.775551,209.134277 
	C76.790146,210.673416 77.322815,211.836365 77.855492,212.999313 
z"/>
<path fill="#CF8C4B" opacity="1.000000" stroke="none" 
	d="
M90.173309,267.755371 
	C89.618202,264.676819 89.327034,261.283905 89.097038,257.441437 
	C89.584549,260.474915 90.010895,263.957977 90.173309,267.755371 
z"/>
<path fill="#CF8C4B" opacity="1.000000" stroke="none" 
	d="
M115.584015,223.005371 
	C116.061996,221.217392 116.952698,219.427505 118.186859,217.557434 
	C119.629150,218.318954 120.727966,219.160675 121.826782,220.002380 
	C121.444878,220.932739 121.062981,221.863098 120.403587,222.943085 
	C118.749634,223.062973 117.373184,223.033218 115.584015,223.005371 
z"/>
<path fill="#CF8C4B" opacity="1.000000" stroke="none" 
	d="
M108.475456,273.148865 
	C108.869812,275.707825 108.919327,278.406494 108.896973,281.549774 
	C105.826561,279.313171 106.491943,276.339722 108.475456,273.148865 
z"/>
<path fill="#CF8C4B" opacity="1.000000" stroke="none" 
	d="
M91.371254,280.665466 
	C90.784637,278.601959 90.409698,276.221649 90.104256,273.424255 
	C90.643486,275.454346 91.113205,277.901520 91.371254,280.665466 
z"/>
<path fill="#CF8C4B" opacity="1.000000" stroke="none" 
	d="
M93.648712,267.329407 
	C94.236237,269.402954 94.604378,271.788635 94.902390,274.587494 
	C94.364616,272.547607 93.896973,270.094574 93.648712,267.329407 
z"/>
<path fill="#CF8C4B" opacity="1.000000" stroke="none" 
	d="
M105.422226,264.116394 
	C105.101181,262.309143 105.064171,260.574188 105.092651,258.410095 
	C107.779694,259.834869 107.983795,261.902252 105.422226,264.116394 
z"/>
<path fill="#CF8C4B" opacity="1.000000" stroke="none" 
	d="
M86.117615,239.851166 
	C84.998207,237.960098 84.118828,235.828369 83.187729,233.337158 
	C84.209877,235.188629 85.283768,237.399551 86.117615,239.851166 
z"/>
<path fill="#CF8C4B" opacity="1.000000" stroke="none" 
	d="
M104.513145,272.868988 
	C104.201508,271.124939 104.218941,269.257324 104.569260,267.168274 
	C104.882179,268.879669 104.862198,270.812561 104.513145,272.868988 
z"/>
<path fill="#CF8C4B" opacity="1.000000" stroke="none" 
	d="
M92.839920,256.234039 
	C93.380257,257.708954 93.671989,259.453735 93.894585,261.598328 
	C93.414070,260.166687 93.002693,258.335297 92.839920,256.234039 
z"/>
<path fill="#CF8C4B" opacity="1.000000" stroke="none" 
	d="
M82.945633,230.761261 
	C81.710037,228.988388 80.475494,226.830399 79.197037,224.325882 
	C80.417633,226.111618 81.682159,228.243866 82.945633,230.761261 
z"/>
<path fill="#CF8C4B" opacity="1.000000" stroke="none" 
	d="
M109.510574,263.110901 
	C109.614479,264.437103 109.402802,265.871399 109.023651,267.646118 
	C108.969109,266.397339 109.082047,264.808167 109.510574,263.110901 
z"/>
<path fill="#CF8C4B" opacity="1.000000" stroke="none" 
	d="
M89.139755,254.817902 
	C88.615746,253.945480 88.327805,252.839417 88.111160,251.369934 
	C88.580246,252.199112 88.978035,253.391678 89.139755,254.817902 
z"/>
<path fill="#CF8C4B" opacity="1.000000" stroke="none" 
	d="
M112.801483,241.121704 
	C113.011635,242.264481 112.883690,243.475983 112.448532,244.890259 
	C112.248680,243.792191 112.356033,242.491302 112.801483,241.121704 
z"/>
<path fill="#CF8C4B" opacity="1.000000" stroke="none" 
	d="
M110.569794,252.076599 
	C110.633591,253.099197 110.391602,254.216751 109.988182,255.657043 
	C109.972504,254.710373 110.118263,253.440948 110.569794,252.076599 
z"/>
<path fill="#CF8C4B" opacity="1.000000" stroke="none" 
	d="
M91.833176,249.171295 
	C92.360458,249.744476 92.668442,250.532211 92.935547,251.667480 
	C92.467728,251.138641 92.040802,250.262222 91.833176,249.171295 
z"/>
<path fill="#CF8C4B" opacity="1.000000" stroke="none" 
	d="
M106.478142,252.908203 
	C106.212814,252.090851 106.240829,251.187332 106.566940,250.109009 
	C106.833855,250.896820 106.802673,251.859421 106.478142,252.908203 
z"/>
<path fill="#CF8C4B" opacity="1.000000" stroke="none" 
	d="
M109.459351,237.899933 
	C109.528717,236.758148 109.929153,235.499222 110.632782,234.081940 
	C110.554115,235.209991 110.172264,236.496399 109.459351,237.899933 
z"/>
<path fill="#CF8C4B" opacity="1.000000" stroke="none" 
	d="
M111.544472,248.079636 
	C111.595230,248.794327 111.360123,249.585785 111.001923,250.684174 
	C111.005417,250.046204 111.132011,249.101303 111.544472,248.079636 
z"/>
<path fill="#CF8C4B" opacity="1.000000" stroke="none" 
	d="
M111.175362,233.831818 
	C111.036751,233.067032 111.169975,232.174332 111.598206,231.108765 
	C111.744545,231.858566 111.595879,232.781235 111.175362,233.831818 
z"/>
<path fill="#CF8C4B" opacity="1.000000" stroke="none" 
	d="
M87.083893,243.882202 
	C86.602165,243.570740 86.316406,243.082703 86.077179,242.286102 
	C86.509094,242.553574 86.894485,243.129593 87.083893,243.882202 
z"/>
<path fill="#CF8C4B" opacity="1.000000" stroke="none" 
	d="
M108.438644,241.936005 
	C108.232864,241.409210 108.285683,240.819885 108.608963,240.085114 
	C108.818703,240.584259 108.757980,241.228867 108.438644,241.936005 
z"/>
<path fill="#CF8C4B" opacity="1.000000" stroke="none" 
	d="
M116.620140,230.040375 
	C116.807220,230.579239 116.731247,231.180069 116.372131,231.914276 
	C116.178368,231.399216 116.267731,230.750763 116.620140,230.040375 
z"/>
<path fill="#CF8C4B" opacity="1.000000" stroke="none" 
	d="
M88.024315,234.277374 
	C88.348328,234.720398 88.675392,235.503235 89.040680,236.634094 
	C88.728401,236.193817 88.377884,235.405502 88.024315,234.277374 
z"/>
<path fill="#CF8C4B" opacity="1.000000" stroke="none" 
	d="
M114.150208,225.782440 
	C114.076286,225.375641 114.235817,224.778351 114.681152,224.050278 
	C114.772530,224.476974 114.578094,225.034470 114.150208,225.782440 
z"/>
<path fill="#CF8C4B" opacity="1.000000" stroke="none" 
	d="
M85.061447,227.223114 
	C85.349152,227.397186 85.672066,227.871338 86.040741,228.658447 
	C85.756561,228.488663 85.426613,228.005951 85.061447,227.223114 
z"/>
<path fill="#CF8C4B" opacity="1.000000" stroke="none" 
	d="
M88.337402,248.794525 
	C88.117668,248.545929 88.056885,248.113907 87.959389,247.355392 
	C88.113899,247.556305 88.305115,248.083694 88.337402,248.794525 
z"/>
<path fill="#CF8C4B" opacity="1.000000" stroke="none" 
	d="
M89.125595,237.133057 
	C89.307602,237.111649 89.584709,237.295029 89.848663,237.735291 
	C89.584114,237.817719 89.379181,237.599609 89.125595,237.133057 
z"/>
<path fill="#CF8C4B" opacity="1.000000" stroke="none" 
	d="
M86.136581,229.130585 
	C86.327942,229.106812 86.610443,229.289963 86.866898,229.733612 
	C86.587219,229.821228 86.382843,229.602341 86.136581,229.130585 
z"/>
<path fill="#CF8C4B" opacity="1.000000" stroke="none" 
	d="
M90.749954,244.133133 
	C90.848930,244.008667 90.988625,244.479767 91.039810,244.720123 
	C90.725845,244.841660 90.579178,244.607361 90.749954,244.133133 
z"/>
<path fill="#CF8C4B" opacity="1.000000" stroke="none" 
	d="
M91.133217,245.119171 
	C91.318573,245.098663 91.597778,245.287094 91.861618,245.735535 
	C91.591194,245.818222 91.384796,245.595749 91.133217,245.119171 
z"/>
<path fill="#CF8C4B" opacity="1.000000" stroke="none" 
	d="
M113.333847,226.846863 
	C113.264153,226.692993 113.365936,226.392197 113.713264,226.008392 
	C113.865440,226.217392 113.714287,226.475586 113.333847,226.846863 
z"/>
<path fill="#CF8C4B" opacity="1.000000" stroke="none" 
	d="
M84.117714,225.121887 
	C84.303261,225.101669 84.581383,225.284653 84.834427,225.724152 
	C84.563751,225.804077 84.364067,225.585556 84.117714,225.121887 
z"/>
<path fill="#CF8C4B" opacity="1.000000" stroke="none" 
	d="
M107.227745,245.906845 
	C107.089264,245.839142 107.070175,245.670929 107.109451,245.255585 
	C107.458923,245.234482 107.518692,245.500427 107.227745,245.906845 
z"/>
<path fill="#CF8C4B" opacity="1.000000" stroke="none" 
	d="
M87.869644,246.864990 
	C87.685616,246.887360 87.408173,246.704453 87.145889,246.264435 
	C87.413383,246.180237 87.618446,246.397690 87.869644,246.864990 
z"/>
<path fill="#CF8C4B" opacity="1.000000" stroke="none" 
	d="
M82.132141,221.100021 
	C82.333107,221.078888 82.620644,221.269623 82.866684,221.725296 
	C82.571831,221.809891 82.369675,221.583771 82.132141,221.100021 
z"/>
<path fill="#000000" opacity="1.000000" stroke="none" 
	d="
M295.022980,295.404480 
	C295.816193,293.638885 296.593109,292.283997 297.370026,290.929108 
	C297.868652,290.907196 298.367279,290.885254 298.865906,290.863342 
	C299.375793,292.930420 299.885712,294.997467 300.395599,297.064545 
	C300.002930,297.543274 299.610260,298.022003 299.217560,298.500763 
	C297.813934,297.605560 296.410309,296.710358 295.022980,295.404480 
z"/>
<path fill="#000000" opacity="1.000000" stroke="none" 
	d="
M275.871887,292.509705 
	C277.316223,293.333099 279.585815,294.441711 279.665894,295.690735 
	C279.908447,299.473206 279.302521,303.310120 278.941376,307.539032 
	C277.838135,308.655609 276.820709,309.358978 275.639771,310.175415 
	C273.490692,304.118286 273.436035,298.482269 275.871887,292.509705 
z"/>
<path fill="#FB9352" opacity="1.000000" stroke="none" 
	d="
M284.656982,282.754211 
	C284.887146,284.070557 284.916077,285.141785 284.906708,286.614105 
	C284.329803,288.135620 283.791229,289.255981 283.252655,290.376373 
	C282.996124,290.331940 282.739624,290.287506 282.483093,290.243042 
	C282.483093,287.062958 282.483093,283.882843 282.483093,279.291412 
	C283.647003,281.189941 284.051361,281.849487 284.656982,282.754211 
z"/>
<path fill="#C69463" opacity="1.000000" stroke="none" 
	d="
M77.957344,212.598022 
	C77.322815,211.836365 76.790146,210.673416 76.124405,209.211914 
	C75.516228,204.326050 78.226860,203.367615 82.652588,203.674881 
	C82.929337,205.292236 83.231827,207.060013 83.543259,208.880035 
	C85.130569,208.880035 86.765579,208.880035 86.937813,208.880035 
	C89.110779,206.382980 90.547821,203.355789 92.058640,203.318512 
	C94.314888,203.262833 97.673973,204.704697 94.699928,208.685623 
	C98.115105,209.095322 101.004326,209.936005 101.187286,205.304428 
	C101.218559,204.512665 103.126823,203.027283 103.865738,203.194885 
	C105.298592,203.519852 106.733261,204.600204 107.743896,205.742142 
	C108.367889,206.447189 108.210373,207.843903 108.575089,209.892960 
	C110.416168,208.503357 111.738724,207.575653 112.979378,206.548996 
	C114.239922,205.505859 115.785744,203.237076 116.562752,203.489212 
	C118.505272,204.119568 121.604362,204.828720 120.156403,208.364227 
	C120.135063,208.416336 120.912796,208.795700 121.655960,209.402985 
	C121.995209,210.188858 121.996101,210.594101 121.725555,211.011169 
	C121.273369,211.034576 121.092613,211.046143 120.911858,211.057693 
	C113.496742,211.354034 106.082718,211.839706 98.666130,211.882675 
	C93.384834,211.913284 88.102646,211.241989 82.815285,211.113708 
	C81.239609,211.075485 79.645088,211.814072 77.957344,212.598022 
z"/>
<path fill="#D38B46" opacity="1.000000" stroke="none" 
	d="
M120.943573,211.405640 
	C121.092613,211.046143 121.273369,211.034576 121.942398,210.807770 
	C122.604622,210.034821 122.778572,209.477142 122.952530,208.919479 
	C122.952530,208.919479 122.990181,208.987854 123.269028,208.989014 
	C124.643127,209.999496 125.738380,211.008820 126.833633,212.018127 
	C125.267097,214.469498 123.700554,216.920868 121.980392,219.687317 
	C120.727966,219.160675 119.629150,218.318954 118.337830,217.245544 
	C119.088638,215.260437 120.031960,213.507004 120.943573,211.405640 
z"/>
<path fill="#CF8C4B" opacity="1.000000" stroke="none" 
	d="
M126.967575,211.703552 
	C125.738380,211.008820 124.643127,209.999496 123.234894,208.970093 
	C126.955803,207.338882 126.955803,207.338882 126.967575,211.703552 
z"/>
<path fill="#CF8C4B" opacity="1.000000" stroke="none" 
	d="
M122.711395,208.968185 
	C122.778572,209.477142 122.604622,210.034821 122.213837,210.795914 
	C121.996101,210.594101 121.995209,210.188858 121.999481,209.479736 
	C122.004639,209.175827 122.470261,209.016891 122.711395,208.968185 
z"/>
</svg>