<svg version="1.1" id="Layer_1" xmlns="http://www.w3.org/2000/svg" xmlns:xlink="http://www.w3.org/1999/xlink" x="0px" y="0px"
	 width="100%" viewBox="0 0 492 383" enable-background="new 0 0 492 383" xml:space="preserve">
<path fill="#000000" opacity="1.000000" stroke="none" 
	d="
M260.000000,384.000000 
	C173.357941,384.000000 87.215866,384.000000 1.036902,384.000000 
	C1.036902,256.394379 1.036902,128.788773 1.036902,1.091576 
	C164.892090,1.091576 328.784241,1.091576 492.838196,1.091576 
	C492.838196,128.666504 492.838196,256.333221 492.838196,384.000000 
	C415.455414,384.000000 337.977692,384.000000 260.000000,384.000000 
M294.928741,215.701675 
	C294.928741,215.701675 294.582764,215.745758 294.582764,215.745758 
	C294.582764,215.745758 294.886963,216.068970 295.029724,216.272964 
	C295.029724,216.272964 295.393738,216.230423 295.393738,216.230423 
	C295.393738,216.230423 295.066559,215.889389 294.928741,215.701675 
M142.992310,252.329544 
	C142.691177,251.870407 142.390060,251.411270 142.060745,250.152603 
	C141.480637,247.928375 140.987030,245.677277 140.305374,243.484604 
	C137.396057,234.126328 135.621246,225.005203 145.045120,217.947052 
	C146.955154,216.516479 148.868103,215.089783 151.705383,213.369751 
	C153.200165,213.307770 154.694916,213.191925 156.189713,213.191635 
	C198.488342,213.183395 240.786972,213.186813 283.085602,213.188339 
	C284.863129,213.188400 286.640625,213.188339 288.418152,213.188339 
	C287.699860,212.245621 286.948273,212.015625 286.196655,212.015411 
	C242.232620,212.003143 198.268585,212.001678 154.304626,212.058746 
	C153.121338,212.060287 151.938919,212.714890 150.167435,213.106873 
	C142.869095,214.348663 136.083328,221.464127 136.082458,228.919220 
	C136.081558,236.713638 137.158218,244.453430 142.014404,251.666306 
	C142.314087,252.127350 142.613770,252.588394 143.015808,253.616562 
	C143.314819,254.094147 143.613815,254.571747 144.033646,255.696518 
	C144.634171,256.648987 145.234680,257.601471 145.835205,258.553955 
	C146.542450,257.881439 147.249680,257.208923 147.956924,256.536407 
	C146.684738,255.979553 145.412552,255.422684 143.997864,254.316589 
	C143.710602,253.833908 143.423355,253.351227 142.992310,252.329544 
M327.190369,186.477646 
	C327.382294,186.721909 327.614655,186.918320 328.025299,187.742279 
	C330.508331,190.506271 332.991394,193.270264 335.474457,196.034271 
	C336.011688,195.472549 336.548950,194.910812 337.086212,194.349091 
	C334.080170,191.862717 331.074158,189.376343 327.797852,186.519196 
	C327.593201,186.287445 327.357635,186.093185 326.757446,185.450989 
	C326.092865,185.158768 325.428314,184.866547 324.763733,184.574310 
	C324.667450,184.852142 324.571167,185.129959 324.474884,185.407791 
	C325.294006,185.638199 326.113129,185.868591 327.190369,186.477646 
M204.174301,151.501144 
	C204.372101,151.742981 204.610275,151.934662 204.971100,152.823898 
	C206.964661,157.400620 211.091354,156.945068 215.913956,157.018097 
	C222.879959,157.036942 229.845978,157.049438 236.811951,157.075836 
	C258.201477,157.156906 279.590973,157.243317 301.068512,158.048035 
	C302.071167,158.667404 303.021027,159.697968 304.085663,159.834702 
	C308.605927,160.415253 313.207336,160.459763 317.685760,161.237473 
	C320.708771,161.762451 323.575928,163.184662 326.512817,164.205536 
	C321.701080,159.983017 310.810150,156.921722 303.741699,156.290756 
	C302.426849,156.188446 301.112030,155.997437 299.797150,155.996857 
	C271.530182,155.984604 243.263214,155.993652 214.259079,155.945923 
	C211.197098,154.594559 208.135101,153.243210 204.821503,151.506744 
	C204.625793,151.263687 204.389481,151.070221 203.984680,150.287292 
	C203.018997,149.170990 202.053299,148.054688 200.922134,146.179123 
	C200.077896,140.079269 199.233673,133.979431 198.437866,128.229553 
	C195.291290,133.581940 196.384888,143.186630 200.956436,147.807083 
	C201.946060,148.909286 202.935684,150.011490 204.174301,151.501144 
M337.928741,169.715546 
	C337.928741,169.715546 337.593811,169.752792 337.593811,169.752792 
	C337.593811,169.752792 337.895752,170.068787 338.068207,170.737305 
	C339.329773,171.548050 340.591309,172.358795 342.042694,173.818634 
	C344.543365,176.551498 347.044067,179.284363 349.544769,182.017227 
	C350.081512,181.455643 350.618286,180.894043 351.155060,180.332443 
	C348.127747,177.852570 345.100433,175.372681 341.722443,172.353607 
	C340.503571,171.535324 339.284729,170.717056 337.928741,169.715546 
M250.927399,128.721985 
	C250.927399,128.721985 250.599213,128.761154 250.599213,128.761154 
	C250.599213,128.761154 250.889816,129.068695 251.026871,129.717194 
	C251.914062,130.749313 252.801239,131.781433 253.688416,132.813553 
	C254.053787,132.395828 254.419159,131.978119 254.784531,131.560410 
	C253.544479,130.672592 252.304428,129.784760 250.927399,128.721985 
M335.068542,168.276520 
	C335.068542,168.276520 335.387482,168.239548 335.387482,168.239548 
	C335.387482,168.239548 335.102417,167.933487 334.730530,167.378952 
	C333.175964,166.551468 331.621429,165.723999 329.928101,164.708527 
	C329.928101,164.708527 329.584351,164.747986 329.584351,164.747986 
	C329.584351,164.747986 329.893311,165.070084 330.083679,165.760727 
	C331.700775,166.541489 333.317841,167.322250 335.068542,168.276520 
M256.927338,133.719696 
	C256.927338,133.719696 256.597168,133.760071 256.597168,133.760071 
	C256.597168,133.760071 256.888916,134.068542 257.025177,134.717361 
	C257.912445,135.749344 258.799683,136.781311 259.686951,137.813293 
	C260.052429,137.395538 260.417908,136.977783 260.783386,136.560028 
	C259.543793,135.671844 258.304169,134.783676 256.927338,133.719696 
M268.927216,143.718033 
	C268.927216,143.718033 268.595367,143.759186 268.595367,143.759186 
	C268.595367,143.759186 268.888336,144.068420 269.024292,144.717560 
	C269.911743,145.750275 270.799225,146.783005 271.686676,147.815720 
	C272.061676,147.404266 272.436676,146.992828 272.811676,146.581375 
	C271.562714,145.685791 270.313721,144.790207 268.927216,143.718033 
M297.054871,120.464264 
	C296.865936,120.297165 296.677032,120.130066 296.488098,119.962959 
	C296.626709,120.326103 296.765320,120.689247 296.925049,121.848175 
	C296.363953,126.945145 300.167633,127.708305 304.002167,129.299210 
	C301.456635,126.152962 299.310364,123.500198 297.054871,120.464264 
M317.058685,143.762482 
	C318.035767,145.457535 319.012848,147.152588 319.060730,148.967590 
	C304.395111,148.967590 289.729523,148.967590 275.063904,148.967590 
	C292.037872,150.017609 309.003479,150.026718 325.968719,149.954819 
	C326.322266,149.953339 326.671814,149.014404 326.843201,147.889191 
	C323.603851,146.215256 320.364532,144.541336 316.728882,142.305435 
	C311.880035,139.482086 307.031189,136.658737 302.182343,133.835388 
	C301.904510,134.351288 301.626678,134.867172 301.348846,135.383072 
	C305.169098,140.428070 311.510620,140.877747 317.058685,143.762482 
M215.987076,115.190460 
	C223.867126,115.606682 231.747192,116.022911 239.587387,116.437027 
	C239.877228,117.976845 240.135925,119.351181 240.394623,120.725517 
	C240.577026,120.673386 240.759430,120.621254 240.941833,120.569130 
	C240.941833,118.525749 240.941833,116.482376 240.941833,114.111664 
	C232.177689,114.111664 223.731598,114.111664 214.575424,114.057045 
	C213.494659,114.479729 212.413910,114.902412 211.333145,115.325096 
	C211.504608,115.656769 211.676056,115.988449 211.847519,116.320122 
	C212.976562,115.838089 214.105606,115.356049 215.987076,115.190460 
M303.971954,177.147934 
	C274.885040,177.147934 245.798096,177.147934 216.711166,177.147934 
	C226.513351,178.023407 236.319183,177.948349 246.123322,178.045181 
	C255.345505,178.136246 264.565308,178.446396 273.787231,178.591309 
	C284.154388,178.754211 294.522766,178.839966 305.464081,178.893799 
	C305.767334,178.580399 306.070587,178.266998 306.373871,177.953598 
	C305.879517,177.649307 305.385162,177.345001 303.971954,177.147934 
M306.852356,289.871521 
	C313.020264,288.248688 319.188141,286.625824 325.356049,285.002991 
	C316.189728,285.450256 307.388824,287.040070 298.594757,288.666809 
	C298.351379,288.711823 298.181305,289.153015 297.074127,289.661316 
	C289.606140,289.680054 282.138092,289.731171 274.670227,289.711578 
	C250.448273,289.648041 226.226425,289.558502 201.618927,288.853180 
	C197.239929,288.227722 192.801865,287.871216 188.493271,286.925110 
	C176.756409,284.347900 166.252869,279.585297 158.321121,269.987640 
	C155.350327,266.392853 151.488144,263.534698 148.032364,260.340698 
	C158.681519,277.548859 174.184097,287.177795 194.294571,290.806061 
	C230.910095,290.875275 267.525604,290.949799 304.141174,290.970520 
	C304.783936,290.970886 305.427063,290.324799 306.852356,289.871521 
M159.819138,234.073608 
	C202.968613,234.073608 246.118088,234.073608 289.267578,234.073608 
	C289.266937,233.651718 289.266327,233.229843 289.265717,232.807953 
	C245.821808,232.807953 202.377914,232.807953 158.428314,232.490921 
	C155.139175,232.959702 156.255859,235.044098 156.811340,236.914291 
	C159.276703,245.214905 163.573608,252.423218 169.900543,258.338989 
	C171.710846,260.031647 173.875504,261.345337 176.324493,263.164734 
	C176.324493,261.826569 176.455978,261.388550 176.300949,261.229126 
	C175.733566,260.645630 175.063522,260.163330 174.445023,259.627991 
	C166.628311,252.862595 160.324677,245.164597 159.819138,234.073608 
M214.977417,94.003410 
	C211.911407,94.506744 208.682663,94.556511 205.806320,95.588493 
	C189.559494,101.417625 179.695816,112.802795 177.269318,130.034348 
	C175.949585,139.406326 177.769043,148.303482 183.163147,156.272980 
	C182.826599,153.728058 181.920044,151.329865 180.981232,148.944366 
	C175.642303,135.378143 178.805069,121.049232 189.301682,111.165596 
	C190.390259,110.140587 191.585754,109.134621 192.363998,107.889938 
	C197.292557,100.007378 205.120865,97.447121 213.626999,95.977638 
	C215.129288,95.718117 216.548843,94.979645 218.921204,94.248840 
	C230.266937,94.160767 241.612686,94.072701 253.739578,93.949837 
	C256.913177,93.400108 260.227753,91.973907 263.235107,92.457642 
	C274.222412,94.224976 285.141785,96.475861 296.002899,98.917534 
	C298.282349,99.429970 300.853241,101.072609 302.184052,102.970039 
	C308.960236,112.631500 315.378754,122.544044 321.907074,132.378922 
	C322.893555,133.865082 323.798981,135.405045 325.049957,137.415039 
	C323.135315,137.581421 321.879150,137.690582 320.622986,137.799744 
	C324.020935,140.003708 326.775635,143.574295 331.933014,142.085709 
	C322.519562,127.897697 313.597809,114.278542 304.420135,100.834099 
	C303.260132,99.134811 300.895508,97.674919 298.852875,97.256332 
	C286.191284,94.661667 273.475037,92.323837 260.746033,90.075638 
	C257.776917,89.551231 254.633560,89.560181 252.058899,93.053513 
	C241.289505,93.033394 230.519882,92.976257 219.750977,93.040024 
	C218.405304,93.047989 217.063400,93.695351 214.977417,94.003410 
M198.354767,270.065979 
	C199.762207,270.378876 201.169189,270.962677 202.577118,270.964935 
	C234.305878,271.015930 266.036438,271.172852 297.762085,270.855804 
	C303.935394,270.794128 310.529816,270.632416 315.879517,266.145020 
	C311.283173,267.104431 306.686829,268.063873 301.666656,268.245789 
	C291.709778,268.166962 281.752991,268.035004 271.795990,268.019867 
	C248.377274,267.984283 224.958405,267.984009 201.539886,268.061890 
	C200.354721,268.065826 199.172440,268.938599 198.354767,270.065979 
M349.430328,263.811798 
	C342.109222,270.193176 334.788116,276.574524 327.498871,282.928101 
	C343.186707,279.710358 364.548706,251.858627 365.955994,232.381088 
	C367.211334,215.006973 364.675323,198.592178 353.043671,184.823380 
	C352.805389,185.886414 353.211609,186.751511 353.716614,187.554459 
	C363.275604,202.753845 366.312042,219.238907 362.886597,236.780167 
	C360.951141,246.691528 356.688599,255.646652 349.430328,263.811798 
M288.036652,115.942612 
	C287.963348,115.316284 287.964874,114.163658 287.805725,114.141022 
	C284.328735,113.646645 278.668732,118.251968 278.072235,121.955650 
	C277.061462,128.231674 278.933136,132.387390 284.069641,133.083008 
	C288.983734,133.748520 294.058624,133.226624 299.329651,133.226624 
	C297.182037,130.248306 294.632935,130.724686 291.812561,131.730438 
	C290.346344,132.253296 288.601501,132.737778 287.156219,132.428329 
	C283.696625,131.687576 281.183685,129.886108 280.991821,125.750755 
	C280.764008,120.841782 282.231201,117.313232 288.036652,115.942612 
M194.411377,167.005249 
	C191.307846,164.129105 188.204315,161.252960 185.100784,158.376816 
	C184.659882,158.879196 184.218964,159.381577 183.778046,159.883942 
	C187.991531,163.903351 192.205032,167.922745 196.418518,171.942154 
	C196.863022,171.498398 197.307526,171.054642 197.752029,170.610886 
	C196.845764,169.503647 195.939484,168.396393 194.411377,167.005249 
M327.103516,261.565796 
	C330.422699,258.554321 333.741882,255.542862 337.061066,252.531403 
	C336.643585,252.087173 336.226074,251.642944 335.808594,251.198730 
	C331.390442,255.107376 326.972260,259.016022 322.554108,262.924683 
	C322.683441,263.185577 322.812775,263.446503 322.942139,263.707397 
	C324.141571,263.130341 325.341034,262.553284 327.103516,261.565796 
M296.740540,224.164825 
	C295.160797,226.896896 293.581055,229.628952 292.069794,232.242569 
	C298.810455,230.434830 301.258514,223.807648 296.359131,218.160477 
	C296.567444,220.334412 296.715149,221.876099 296.740540,224.164825 
M209.015778,117.868477 
	C208.607590,117.353630 207.947006,116.336784 207.827820,116.396713 
	C203.990128,118.326408 200.674713,120.765190 199.386856,125.917931 
	C202.798080,123.040489 205.639893,120.643349 209.015778,117.868477 
M317.900909,135.072479 
	C313.963196,133.058853 310.025452,131.045212 306.087738,129.031570 
	C305.832184,129.560211 305.576630,130.088852 305.321106,130.617493 
	C308.945221,132.444061 312.545990,134.320648 316.220825,136.038757 
	C316.723663,136.273865 317.595703,135.719299 317.900909,135.072479 
M345.487671,232.870621 
	C345.487671,226.315872 345.487671,219.761124 345.487671,213.206390 
	C344.724335,219.889465 344.418396,226.506943 344.165100,233.126419 
	C344.161438,233.221909 344.814606,233.342529 345.487671,232.870621 
M245.073074,122.594315 
	C244.321487,122.222176 243.569901,121.850037 242.818329,121.477898 
	C242.654434,121.715530 242.490540,121.953163 242.326660,122.190796 
	C244.066864,124.119499 245.807068,126.048195 247.547256,127.976891 
	C247.976562,127.569771 248.405853,127.162659 248.835144,126.755539 
	C247.739731,125.522888 246.644318,124.290237 245.073074,122.594315 
M191.104034,267.501434 
	C189.847076,267.361969 188.590118,267.222534 187.333160,267.083069 
	C187.298569,267.518433 187.263977,267.953827 187.229385,268.389221 
	C189.815201,268.894135 192.401031,269.399078 194.986847,269.903992 
	C195.086426,269.476410 195.186005,269.048859 195.285583,268.621277 
	C194.126755,268.319580 192.967926,268.017883 191.104034,267.501434 
M264.568268,139.134079 
	C263.891144,139.116745 263.213989,139.099411 262.536865,139.082077 
	C263.591339,140.316818 264.645813,141.551575 265.700256,142.786331 
	C266.038086,142.461075 266.375916,142.135834 266.713745,141.810577 
	C266.149414,141.055313 265.585083,140.300034 264.568268,139.134079 
M294.277679,115.864113 
	C293.516510,115.686058 292.755341,115.507996 291.994171,115.329941 
	C291.987976,115.761711 291.981781,116.193474 291.975555,116.625244 
	C292.877075,116.495865 293.778564,116.366486 294.277679,115.864113 
M320.899567,183.392227 
	C321.333893,183.074936 321.768219,182.757660 322.202545,182.440384 
	C321.396515,182.190521 320.590454,181.940674 319.784424,181.690811 
	C319.990784,182.172714 320.197144,182.654617 320.899567,183.392227 
M342.043182,206.763046 
	C342.188324,206.811249 342.343201,206.914734 342.475800,206.891449 
	C342.597748,206.870010 342.805328,206.680008 342.787506,206.619400 
	C342.596375,205.968872 342.367981,205.329315 342.149811,204.686737 
	C342.013000,205.248718 341.876221,205.810699 342.043182,206.763046 
M342.085693,240.215988 
	C341.858124,240.881500 341.630585,241.547012 341.403015,242.212524 
	C341.720367,242.281418 342.037689,242.350311 342.355042,242.419205 
	C342.425690,241.646454 342.496368,240.873703 342.085693,240.215988 
M208.083466,175.426895 
	C208.738586,175.805405 209.393723,176.183929 210.048843,176.562439 
	C210.169144,176.227356 210.289444,175.892288 210.409744,175.557205 
	C209.761215,175.411972 209.112671,175.266724 208.083466,175.426895 
M318.928986,264.932251 
	C319.312622,265.166382 319.696228,265.400482 320.079865,265.634613 
	C320.199341,265.368591 320.318817,265.102539 320.438263,264.836517 
	C320.042267,264.754456 319.646271,264.672394 318.928986,264.932251 
M340.731567,245.181824 
	C340.292572,245.340530 339.853577,245.499252 339.414581,245.657959 
	C339.552032,245.915298 339.689484,246.172638 339.826965,246.429977 
	C340.147827,246.167206 340.468689,245.904419 340.731567,245.181824 
M179.680634,264.562286 
	C179.923798,264.268097 180.166962,263.973877 180.410126,263.679688 
	C180.004913,263.541290 179.599686,263.402893 179.194458,263.264496 
	C179.212540,263.640900 179.230621,264.017273 179.680634,264.562286 
M184.435303,265.692200 
	C184.025345,265.547760 183.615387,265.403320 183.205444,265.258881 
	C183.112411,265.523834 183.019379,265.788788 182.926346,266.053741 
	C183.438293,266.090118 183.950226,266.126495 184.435303,265.692200 
M310.915222,179.020142 
	C311.302307,179.175781 311.689362,179.331421 312.076477,179.487076 
	C312.178040,179.226761 312.279602,178.966446 312.381165,178.706116 
	C311.880859,178.661423 311.380524,178.616730 310.915222,179.020142 
M214.130569,176.333069 
	C213.704773,176.418503 213.278976,176.503937 212.853180,176.589371 
	C212.979019,176.869156 213.104843,177.148926 213.230698,177.428726 
	C213.638702,177.182922 214.046722,176.937134 214.130569,176.333069 
M339.819336,200.527817 
	C339.878357,200.839478 339.937408,201.151138 339.996429,201.462799 
	C340.066589,201.155472 340.136780,200.848145 339.819336,200.527817 
M338.428497,198.255920 
	C338.161499,198.068359 337.894470,197.880798 337.627502,197.693237 
	C337.799561,197.970688 337.971649,198.248138 338.428497,198.255920 
M292.248077,213.570648 
	C292.071686,213.823288 291.895294,214.075928 291.718872,214.328552 
	C291.980621,214.166870 292.242340,214.005188 292.248077,213.570648 
M338.418335,249.226593 
	C338.158295,249.043701 337.898285,248.860809 337.638245,248.677933 
	C337.804718,248.949600 337.971161,249.221283 338.418335,249.226593 
M205.343933,174.432327 
	C205.154861,174.590378 204.965775,174.748413 204.776703,174.906464 
	C204.883698,175.016663 204.990692,175.126877 205.097687,175.237106 
	C205.261520,175.052551 205.425354,174.867996 205.343933,174.432327 
M343.335083,209.871994 
	C343.401337,209.835724 343.467590,209.799454 343.335083,209.871994 
M343.520905,236.734421 
	C343.579956,236.786407 343.639008,236.838394 343.520905,236.734421 
M314.510040,179.452820 
	C314.510040,179.452820 314.541138,179.517578 314.510040,179.452820 
z"/>
<path fill="#060606" opacity="1.000000" stroke="none" 
	d="
M252.995056,93.016098 
	C254.633560,89.560181 257.776917,89.551231 260.746033,90.075638 
	C273.475037,92.323837 286.191284,94.661667 298.852875,97.256332 
	C300.895508,97.674919 303.260132,99.134811 304.420135,100.834099 
	C313.597809,114.278542 322.519562,127.897697 331.933014,142.085709 
	C326.775635,143.574295 324.020935,140.003708 320.622986,137.799744 
	C321.879150,137.690582 323.135315,137.581421 325.049957,137.415039 
	C323.798981,135.405045 322.893555,133.865082 321.907074,132.378922 
	C315.378754,122.544044 308.960236,112.631500 302.184052,102.970039 
	C300.853241,101.072609 298.282349,99.429970 296.002899,98.917534 
	C285.141785,96.475861 274.222412,94.224976 263.235107,92.457642 
	C260.227753,91.973907 256.913177,93.400108 253.372498,93.725647 
	C253.005417,93.501450 252.995056,93.016098 252.995056,93.016098 
z"/>
<path fill="#060606" opacity="1.000000" stroke="none" 
	d="
M349.598694,263.495789 
	C356.688599,255.646652 360.951141,246.691528 362.886597,236.780167 
	C366.312042,219.238907 363.275604,202.753845 353.716614,187.554459 
	C353.211609,186.751511 352.805389,185.886414 353.043671,184.823380 
	C364.675323,198.592178 367.211334,215.006973 365.955994,232.381088 
	C364.548706,251.858627 343.186707,279.710358 327.498871,282.928101 
	C334.788116,276.574524 342.109222,270.193176 349.598694,263.495789 
z"/>
<path fill="#060606" opacity="1.000000" stroke="none" 
	d="
M302.090485,269.023315 
	C306.686829,268.063873 311.283173,267.104431 315.879517,266.145020 
	C310.529816,270.632416 303.935394,270.794128 297.762085,270.855804 
	C266.036438,271.172852 234.305878,271.015930 202.577118,270.964935 
	C201.169189,270.962677 199.762207,270.378876 198.633606,269.647552 
	C217.690979,269.279602 236.469620,269.392029 255.248032,269.361450 
	C270.862335,269.336029 286.476349,269.142426 302.090485,269.023315 
z"/>
<path fill="#060606" opacity="1.000000" stroke="none" 
	d="
M218.006607,94.462349 
	C216.548843,94.979645 215.129288,95.718117 213.626999,95.977638 
	C205.120865,97.447121 197.292557,100.007378 192.363998,107.889938 
	C191.585754,109.134621 190.390259,110.140587 189.301682,111.165596 
	C178.805069,121.049232 175.642303,135.378143 180.981232,148.944366 
	C181.920044,151.329865 182.826599,153.728058 183.163147,156.272980 
	C177.769043,148.303482 175.949585,139.406326 177.269318,130.034348 
	C179.695816,112.802795 189.559494,101.417625 205.806320,95.588493 
	C208.682663,94.556511 211.911407,94.506744 215.723267,94.129128 
	C216.981628,94.324013 217.494110,94.393181 218.006607,94.462349 
z"/>
<path fill="#8D8D8D" opacity="1.000000" stroke="none" 
	d="
M158.934021,232.807953 
	C202.377914,232.807953 245.821808,232.807953 289.265717,232.807953 
	C289.266327,233.229843 289.266937,233.651718 289.267578,234.073608 
	C246.118088,234.073608 202.968613,234.073608 159.228653,233.849182 
	C158.736801,233.352493 158.835419,233.080215 158.934021,232.807953 
z"/>
<path fill="#A1A1A1" opacity="1.000000" stroke="none" 
	d="
M150.756088,213.064941 
	C151.938919,212.714890 153.121338,212.060287 154.304626,212.058746 
	C198.268585,212.001678 242.232620,212.003143 286.196655,212.015411 
	C286.948273,212.015625 287.699860,212.245621 288.418152,213.188339 
	C286.640625,213.188339 284.863129,213.188400 283.085602,213.188339 
	C240.786972,213.186813 198.488342,213.183395 156.189713,213.191635 
	C154.694916,213.191925 153.200165,213.307770 151.349060,213.361984 
	C150.992752,213.354218 150.756088,213.064941 150.756088,213.064941 
z"/>
<path fill="#060606" opacity="1.000000" stroke="none" 
	d="
M193.948807,289.985779 
	C174.184097,287.177795 158.681519,277.548859 148.032364,260.340698 
	C151.488144,263.534698 155.350327,266.392853 158.321121,269.987640 
	C166.252869,279.585297 176.756409,284.347900 188.493271,286.925110 
	C192.801865,287.871216 197.239929,288.227722 201.372559,289.262085 
	C198.733719,289.775909 196.341263,289.880859 193.948807,289.985779 
z"/>
<path fill="#C9C9C9" opacity="1.000000" stroke="none" 
	d="
M194.121689,290.395935 
	C196.341263,289.880859 198.733719,289.775909 201.565353,289.574982 
	C226.226425,289.558502 250.448273,289.648041 274.670227,289.711578 
	C282.138092,289.731171 289.606140,289.680054 297.960663,289.662231 
	C301.254822,289.768890 303.662415,289.874634 306.070038,289.980377 
	C305.427063,290.324799 304.783936,290.970886 304.141174,290.970520 
	C267.525604,290.949799 230.910095,290.875275 194.121689,290.395935 
z"/>
<path fill="#CECECE" opacity="1.000000" stroke="none" 
	d="
M301.878571,268.634583 
	C286.476349,269.142426 270.862335,269.336029 255.248032,269.361450 
	C236.469620,269.392029 217.690979,269.279602 198.450623,269.317993 
	C199.172440,268.938599 200.354721,268.065826 201.539886,268.061890 
	C224.958405,267.984009 248.377274,267.984283 271.795990,268.019867 
	C281.752991,268.035004 291.709778,268.166962 301.878571,268.634583 
z"/>
<path fill="#8E8E8E" opacity="1.000000" stroke="none" 
	d="
M304.890594,178.959305 
	C294.522766,178.839966 284.154388,178.754211 273.787231,178.591309 
	C264.565308,178.446396 255.345505,178.136246 246.123322,178.045181 
	C236.319183,177.948349 226.513351,178.023407 216.711166,177.147934 
	C245.798096,177.147934 274.885040,177.147934 304.563049,177.405151 
	C305.066315,178.094696 304.978455,178.527008 304.890594,178.959305 
z"/>
<path fill="#060606" opacity="1.000000" stroke="none" 
	d="
M287.690796,115.983536 
	C282.231201,117.313232 280.764008,120.841782 280.991821,125.750755 
	C281.183685,129.886108 283.696625,131.687576 287.156219,132.428329 
	C288.601501,132.737778 290.346344,132.253296 291.812561,131.730438 
	C294.632935,130.724686 297.182037,130.248306 299.329651,133.226624 
	C294.058624,133.226624 288.983734,133.748520 284.069641,133.083008 
	C278.933136,132.387390 277.061462,128.231674 278.072235,121.955650 
	C278.668732,118.251968 284.328735,113.646645 287.805725,114.141022 
	C287.964874,114.163658 287.963348,115.316284 287.690796,115.983536 
z"/>
<path fill="#060606" opacity="1.000000" stroke="none" 
	d="
M150.886230,213.507751 
	C148.868103,215.089783 146.955154,216.516479 145.045120,217.947052 
	C135.621246,225.005203 137.396057,234.126328 140.305374,243.484604 
	C140.987030,245.677277 141.480637,247.928375 142.018280,250.593628 
	C141.975800,251.034653 141.869965,251.126740 141.869965,251.126740 
	C137.158218,244.453430 136.081558,236.713638 136.082458,228.919220 
	C136.083328,221.464127 142.869095,214.348663 150.461761,213.085907 
	C150.756088,213.064941 150.992752,213.354218 150.886230,213.507751 
z"/>
<path fill="#7C7C7C" opacity="1.000000" stroke="none" 
	d="
M214.996246,155.998581 
	C243.263214,155.993652 271.530182,155.984604 299.797150,155.996857 
	C301.112030,155.997437 302.426849,156.188446 303.581421,156.739517 
	C302.607574,157.234741 301.794037,157.281204 300.980499,157.327652 
	C279.590973,157.243317 258.201477,157.156906 236.811951,157.075836 
	C229.845978,157.049438 222.879959,157.036942 215.368713,156.773102 
	C214.881058,156.351593 214.938644,156.175079 214.996246,155.998581 
z"/>
<path fill="#060606" opacity="1.000000" stroke="none" 
	d="
M158.681168,232.649445 
	C158.835419,233.080215 158.736801,233.352493 158.788574,234.032288 
	C160.324677,245.164597 166.628311,252.862595 174.445023,259.627991 
	C175.063522,260.163330 175.733566,260.645630 176.300949,261.229126 
	C176.455978,261.388550 176.324493,261.826569 176.324493,263.164734 
	C173.875504,261.345337 171.710846,260.031647 169.900543,258.338989 
	C163.573608,252.423218 159.276703,245.214905 156.811340,236.914291 
	C156.255859,235.044098 155.139175,232.959702 158.681168,232.649445 
z"/>
<path fill="#060606" opacity="1.000000" stroke="none" 
	d="
M306.461182,289.925964 
	C303.662415,289.874634 301.254822,289.768890 298.412109,289.536285 
	C298.181305,289.153015 298.351379,288.711823 298.594757,288.666809 
	C307.388824,287.040070 316.189728,285.450256 325.356049,285.002991 
	C319.188141,286.625824 313.020264,288.248688 306.461182,289.925964 
z"/>
<path fill="#7F7F7F" opacity="1.000000" stroke="none" 
	d="
M215.285507,114.111664 
	C223.731598,114.111664 232.177689,114.111664 240.941833,114.111664 
	C240.941833,116.482376 240.941833,118.525749 240.941833,120.569130 
	C240.759430,120.621254 240.577026,120.673386 240.394623,120.725517 
	C240.135925,119.351181 239.877228,117.976845 239.587387,116.437027 
	C231.747192,116.022911 223.867126,115.606682 215.594757,114.839767 
	C215.202438,114.489075 215.285507,114.111664 215.285507,114.111664 
z"/>
<path fill="#060606" opacity="1.000000" stroke="none" 
	d="
M301.024506,157.687836 
	C301.794037,157.281204 302.607574,157.234741 303.823364,157.117706 
	C310.810150,156.921722 321.701080,159.983017 326.512817,164.205536 
	C323.575928,163.184662 320.708771,161.762451 317.685760,161.237473 
	C313.207336,160.459763 308.605927,160.415253 304.085663,159.834702 
	C303.021027,159.697968 302.071167,158.667404 301.024506,157.687836 
z"/>
<path fill="#7C7C7C" opacity="1.000000" stroke="none" 
	d="
M327.023224,148.512817 
	C326.671814,149.014404 326.322266,149.953339 325.968719,149.954819 
	C309.003479,150.026718 292.037872,150.017609 275.063904,148.967590 
	C289.729523,148.967590 304.395111,148.967590 319.963898,148.975296 
	C322.919128,148.826263 324.971161,148.669540 327.023224,148.512817 
z"/>
<path fill="#060606" opacity="1.000000" stroke="none" 
	d="
M316.862640,143.130920 
	C311.510620,140.877747 305.169098,140.428070 301.348846,135.383072 
	C301.626678,134.867172 301.904510,134.351288 302.182343,133.835388 
	C307.031189,136.658737 311.880035,139.482086 316.861633,142.653351 
	C316.994385,143.001266 316.862640,143.130920 316.862640,143.130920 
z"/>
<path fill="#060606" opacity="1.000000" stroke="none" 
	d="
M194.722290,167.147202 
	C195.939484,168.396393 196.845764,169.503647 197.752029,170.610886 
	C197.307526,171.054642 196.863022,171.498398 196.418518,171.942154 
	C192.205032,167.922745 187.991531,163.903351 183.778046,159.883942 
	C184.218964,159.381577 184.659882,158.879196 185.100784,158.376816 
	C188.204315,161.252960 191.307846,164.129105 194.722290,167.147202 
z"/>
<path fill="#060606" opacity="1.000000" stroke="none" 
	d="
M200.867233,147.120178 
	C196.384888,143.186630 195.291290,133.581940 198.437866,128.229553 
	C199.233673,133.979431 200.077896,140.079269 200.948853,146.603577 
	C200.975586,147.028015 200.867233,147.120178 200.867233,147.120178 
z"/>
<path fill="#060606" opacity="1.000000" stroke="none" 
	d="
M326.822021,261.770996 
	C325.341034,262.553284 324.141571,263.130341 322.942139,263.707397 
	C322.812775,263.446503 322.683441,263.185577 322.554108,262.924683 
	C326.972260,259.016022 331.390442,255.107376 335.808594,251.198730 
	C336.226074,251.642944 336.643585,252.087173 337.061066,252.531403 
	C333.741882,255.542862 330.422699,258.554321 326.822021,261.770996 
z"/>
<path fill="#060606" opacity="1.000000" stroke="none" 
	d="
M296.801697,223.791306 
	C296.715149,221.876099 296.567444,220.334412 296.359131,218.160477 
	C301.258514,223.807648 298.810455,230.434830 292.069794,232.242569 
	C293.581055,229.628952 295.160797,226.896896 296.801697,223.791306 
z"/>
<path fill="#ADADAD" opacity="1.000000" stroke="none" 
	d="
M218.463898,94.355591 
	C217.494110,94.393181 216.981628,94.324013 216.094452,94.150650 
	C217.063400,93.695351 218.405304,93.047989 219.750977,93.040024 
	C230.519882,92.976257 241.289505,93.033394 252.526978,93.034805 
	C252.995056,93.016098 253.005417,93.501450 252.981918,93.743042 
	C241.612686,94.072701 230.266937,94.160767 218.463898,94.355591 
z"/>
<path fill="#060606" opacity="1.000000" stroke="none" 
	d="
M326.933228,148.201004 
	C324.971161,148.669540 322.919128,148.826263 320.428497,148.915314 
	C319.012848,147.152588 318.035767,145.457535 316.960663,143.446701 
	C316.862640,143.130920 316.994385,143.001266 317.059784,142.934341 
	C320.364532,144.541336 323.603851,146.215256 326.933228,148.201004 
z"/>
<path fill="#060606" opacity="1.000000" stroke="none" 
	d="
M208.748749,118.057343 
	C205.639893,120.643349 202.798080,123.040489 199.386856,125.917931 
	C200.674713,120.765190 203.990128,118.326408 207.827820,116.396713 
	C207.947006,116.336784 208.607590,117.353630 208.748749,118.057343 
z"/>
<path fill="#060606" opacity="1.000000" stroke="none" 
	d="
M318.098877,135.301422 
	C317.595703,135.719299 316.723663,136.273865 316.220825,136.038757 
	C312.545990,134.320648 308.945221,132.444061 305.321106,130.617493 
	C305.576630,130.088852 305.832184,129.560211 306.087738,129.031570 
	C310.025452,131.045212 313.963196,133.058853 318.098877,135.301422 
z"/>
<path fill="#060606" opacity="1.000000" stroke="none" 
	d="
M345.324432,233.161026 
	C344.814606,233.342529 344.161438,233.221909 344.165100,233.126419 
	C344.418396,226.506943 344.724335,219.889465 345.487671,213.206390 
	C345.487671,219.761124 345.487671,226.315872 345.324432,233.161026 
z"/>
<path fill="#060606" opacity="1.000000" stroke="none" 
	d="
M328.068115,186.889969 
	C331.074158,189.376343 334.080170,191.862717 337.086212,194.349091 
	C336.548950,194.910812 336.011688,195.472549 335.474457,196.034271 
	C332.991394,193.270264 330.508331,190.506271 328.005249,187.364288 
	C327.985199,186.986298 328.068115,186.889969 328.068115,186.889969 
z"/>
<path fill="#060606" opacity="1.000000" stroke="none" 
	d="
M342.073120,172.892792 
	C345.100433,175.372681 348.127747,177.852570 351.155060,180.332443 
	C350.618286,180.894043 350.081512,181.455643 349.544769,182.017227 
	C347.044067,179.284363 344.543365,176.551498 342.003540,173.425430 
	C341.964355,173.032227 342.073120,172.892792 342.073120,172.892792 
z"/>
<path fill="#060606" opacity="1.000000" stroke="none" 
	d="
M214.627655,155.972260 
	C214.938644,156.175079 214.881058,156.351593 214.898941,156.796173 
	C211.091354,156.945068 206.964661,157.400620 204.979279,152.407211 
	C204.987473,151.990524 205.073120,151.891861 205.073120,151.891861 
	C208.135101,153.243210 211.197098,154.594559 214.627655,155.972260 
z"/>
<path fill="#060606" opacity="1.000000" stroke="none" 
	d="
M245.310989,122.825951 
	C246.644318,124.290237 247.739731,125.522888 248.835144,126.755539 
	C248.405853,127.162659 247.976562,127.569771 247.547256,127.976891 
	C245.807068,126.048195 244.066864,124.119499 242.326660,122.190796 
	C242.490540,121.953163 242.654434,121.715530 242.818329,121.477898 
	C243.569901,121.850037 244.321487,122.222176 245.310989,122.825951 
z"/>
<path fill="#060606" opacity="1.000000" stroke="none" 
	d="
M297.164062,120.847435 
	C299.310364,123.500198 301.456635,126.152962 304.002167,129.299210 
	C300.167633,127.708305 296.363953,126.945145 296.981110,121.401062 
	C297.037170,120.953941 297.164062,120.847435 297.164062,120.847435 
z"/>
<path fill="#060606" opacity="1.000000" stroke="none" 
	d="
M191.456573,267.608826 
	C192.967926,268.017883 194.126755,268.319580 195.285583,268.621277 
	C195.186005,269.048859 195.086426,269.476410 194.986847,269.903992 
	C192.401031,269.399078 189.815201,268.894135 187.229385,268.389221 
	C187.263977,267.953827 187.298569,267.518433 187.333160,267.083069 
	C188.590118,267.222534 189.847076,267.361969 191.456573,267.608826 
z"/>
<path fill="#060606" opacity="1.000000" stroke="none" 
	d="
M264.794495,139.339417 
	C265.585083,140.300034 266.149414,141.055313 266.713745,141.810577 
	C266.375916,142.135834 266.038086,142.461075 265.700256,142.786331 
	C264.645813,141.551575 263.591339,140.316818 262.536865,139.082077 
	C263.213989,139.099411 263.891144,139.116745 264.794495,139.339417 
z"/>
<path fill="#060606" opacity="1.000000" stroke="none" 
	d="
M269.064728,143.894623 
	C270.313721,144.790207 271.562714,145.685791 272.811676,146.581375 
	C272.436676,146.992828 272.061676,147.404266 271.686676,147.815720 
	C270.799225,146.783005 269.911743,145.750275 269.003784,144.352966 
	C268.983276,143.988373 269.064728,143.894623 269.064728,143.894623 
z"/>
<path fill="#060606" opacity="1.000000" stroke="none" 
	d="
M257.064575,133.895508 
	C258.304169,134.783676 259.543793,135.671844 260.783386,136.560028 
	C260.417908,136.977783 260.052429,137.395538 259.686951,137.813293 
	C258.799683,136.781311 257.912445,135.749344 257.004272,134.353073 
	C256.983398,133.988785 257.064575,133.895508 257.064575,133.895508 
z"/>
<path fill="#060606" opacity="1.000000" stroke="none" 
	d="
M330.066895,164.896515 
	C331.621429,165.723999 333.175964,166.551468 334.871552,167.695587 
	C335.012573,168.012222 334.934937,168.102997 334.934937,168.102997 
	C333.317841,167.322250 331.700775,166.541489 330.034912,165.375031 
	C329.986145,164.989349 330.066895,164.896515 330.066895,164.896515 
z"/>
<path fill="#060606" opacity="1.000000" stroke="none" 
	d="
M251.064377,128.896942 
	C252.304428,129.784760 253.544479,130.672592 254.784531,131.560410 
	C254.419159,131.978119 254.053787,132.395828 253.688416,132.813553 
	C252.801239,131.781433 251.914062,130.749313 251.005219,129.353302 
	C250.983582,128.989410 251.064377,128.896942 251.064377,128.896942 
z"/>
<path fill="#060606" opacity="1.000000" stroke="none" 
	d="
M341.908630,173.100891 
	C340.591309,172.358795 339.329773,171.548050 338.027466,170.363495 
	C337.986694,169.989670 338.065857,169.898773 338.065857,169.898773 
	C339.284729,170.717056 340.503571,171.535324 341.897766,172.623199 
	C342.073120,172.892792 341.964355,173.032227 341.908630,173.100891 
z"/>
<path fill="#060606" opacity="1.000000" stroke="none" 
	d="
M203.925308,151.113693 
	C202.935684,150.011490 201.946060,148.909286 200.911835,147.463623 
	C200.867233,147.120178 200.975586,147.028015 201.031586,146.983200 
	C202.053299,148.054688 203.018997,149.170990 203.998077,150.650009 
	C204.011459,151.012726 203.925308,151.113693 203.925308,151.113693 
z"/>
<path fill="#060606" opacity="1.000000" stroke="none" 
	d="
M294.478882,116.050613 
	C293.778564,116.366486 292.877075,116.495865 291.975555,116.625244 
	C291.981781,116.193474 291.987976,115.761711 291.994171,115.329941 
	C292.755341,115.507996 293.516510,115.686058 294.478882,116.050613 
z"/>
<path fill="#060606" opacity="1.000000" stroke="none" 
	d="
M320.651550,183.264374 
	C320.197144,182.654617 319.990784,182.172714 319.784424,181.690811 
	C320.590454,181.940674 321.396515,182.190521 322.202545,182.440384 
	C321.768219,182.757660 321.333893,183.074936 320.651550,183.264374 
z"/>
<path fill="#060606" opacity="1.000000" stroke="none" 
	d="
M144.140366,254.865814 
	C145.412552,255.422684 146.684738,255.979553 147.956924,256.536407 
	C147.249680,257.208923 146.542450,257.881439 145.835205,258.553955 
	C145.234680,257.601471 144.634171,256.648987 144.031708,255.329041 
	C144.029770,254.961548 144.140366,254.865814 144.140366,254.865814 
z"/>
<path fill="#060606" opacity="1.000000" stroke="none" 
	d="
M214.930466,114.084351 
	C215.285507,114.111664 215.202438,114.489075 215.218536,114.681549 
	C214.105606,115.356049 212.976562,115.838089 211.847519,116.320122 
	C211.676056,115.988449 211.504608,115.656769 211.333145,115.325096 
	C212.413910,114.902412 213.494659,114.479729 214.930466,114.084351 
z"/>
<path fill="#060606" opacity="1.000000" stroke="none" 
	d="
M341.891296,206.567871 
	C341.876221,205.810699 342.013000,205.248718 342.149811,204.686737 
	C342.367981,205.329315 342.596375,205.968872 342.787506,206.619400 
	C342.805328,206.680008 342.597748,206.870010 342.475800,206.891449 
	C342.343201,206.914734 342.188324,206.811249 341.891296,206.567871 
z"/>
<path fill="#060606" opacity="1.000000" stroke="none" 
	d="
M342.326355,240.158478 
	C342.496368,240.873703 342.425690,241.646454 342.355042,242.419205 
	C342.037689,242.350311 341.720367,242.281418 341.403015,242.212524 
	C341.630585,241.547012 341.858124,240.881500 342.326355,240.158478 
z"/>
<path fill="#060606" opacity="1.000000" stroke="none" 
	d="
M208.273804,175.274200 
	C209.112671,175.266724 209.761215,175.411972 210.409744,175.557205 
	C210.289444,175.892288 210.169144,176.227356 210.048843,176.562439 
	C209.393723,176.183929 208.738586,175.805405 208.273804,175.274200 
z"/>
<path fill="#060606" opacity="1.000000" stroke="none" 
	d="
M319.089630,264.761292 
	C319.646271,264.672394 320.042267,264.754456 320.438263,264.836517 
	C320.318817,265.102539 320.199341,265.368591 320.079865,265.634613 
	C319.696228,265.400482 319.312622,265.166382 319.089630,264.761292 
z"/>
<path fill="#060606" opacity="1.000000" stroke="none" 
	d="
M340.760559,245.411728 
	C340.468689,245.904419 340.147827,246.167206 339.826965,246.429977 
	C339.689484,246.172638 339.552032,245.915298 339.414581,245.657959 
	C339.853577,245.499252 340.292572,245.340530 340.760559,245.411728 
z"/>
<path fill="#060606" opacity="1.000000" stroke="none" 
	d="
M179.464676,264.477966 
	C179.230621,264.017273 179.212540,263.640900 179.194458,263.264496 
	C179.599686,263.402893 180.004913,263.541290 180.410126,263.679688 
	C180.166962,263.973877 179.923798,264.268097 179.464676,264.477966 
z"/>
<path fill="#060606" opacity="1.000000" stroke="none" 
	d="
M326.932251,186.098999 
	C326.113129,185.868591 325.294006,185.638199 324.474884,185.407791 
	C324.571167,185.129959 324.667450,184.852142 324.763733,184.574310 
	C325.428314,184.866547 326.092865,185.158768 326.881927,185.731812 
	C327.006409,186.012619 326.932251,186.098999 326.932251,186.098999 
z"/>
<path fill="#060606" opacity="1.000000" stroke="none" 
	d="
M184.448730,265.927551 
	C183.950226,266.126495 183.438293,266.090118 182.926361,266.053741 
	C183.019379,265.788788 183.112411,265.523834 183.205444,265.258881 
	C183.615387,265.403320 184.025345,265.547760 184.448730,265.927551 
z"/>
<path fill="#060606" opacity="1.000000" stroke="none" 
	d="
M310.897705,178.796082 
	C311.380524,178.616730 311.880859,178.661423 312.381165,178.706131 
	C312.279602,178.966446 312.178040,179.226761 312.076477,179.487061 
	C311.689362,179.331421 311.302307,179.175781 310.897705,178.796082 
z"/>
<path fill="#060606" opacity="1.000000" stroke="none" 
	d="
M214.292664,176.512207 
	C214.046722,176.937134 213.638702,177.182922 213.230682,177.428711 
	C213.104843,177.148926 212.979019,176.869156 212.853180,176.589371 
	C213.278976,176.503937 213.704773,176.418503 214.292664,176.512207 
z"/>
<path fill="#060606" opacity="1.000000" stroke="none" 
	d="
M340.013153,200.534332 
	C340.136780,200.848145 340.066589,201.155472 339.996429,201.462799 
	C339.937408,201.151138 339.878357,200.839478 340.013153,200.534332 
z"/>
<path fill="#060606" opacity="1.000000" stroke="none" 
	d="
M338.286133,198.390747 
	C337.971649,198.248138 337.799561,197.970688 337.627502,197.693237 
	C337.894470,197.880798 338.161499,198.068359 338.286133,198.390747 
z"/>
<path fill="#060606" opacity="1.000000" stroke="none" 
	d="
M292.376099,213.707077 
	C292.242340,214.005188 291.980621,214.166870 291.718872,214.328552 
	C291.895294,214.075928 292.071686,213.823288 292.376099,213.707077 
z"/>
<path fill="#060606" opacity="1.000000" stroke="none" 
	d="
M305.177338,178.926544 
	C304.978455,178.527008 305.066315,178.094696 305.022461,177.351532 
	C305.385162,177.345001 305.879517,177.649307 306.373871,177.953613 
	C306.070587,178.266998 305.767334,178.580399 305.177338,178.926544 
z"/>
<path fill="#060606" opacity="1.000000" stroke="none" 
	d="
M338.277985,249.359772 
	C337.971161,249.221283 337.804718,248.949600 337.638245,248.677933 
	C337.898285,248.860809 338.158295,249.043701 338.277985,249.359772 
z"/>
<path fill="#060606" opacity="1.000000" stroke="none" 
	d="
M205.466553,174.557892 
	C205.425354,174.867996 205.261520,175.052551 205.097687,175.237091 
	C204.990692,175.126877 204.883698,175.016663 204.776703,174.906464 
	C204.965775,174.748413 205.154861,174.590378 205.466553,174.557892 
z"/>
<path fill="#060606" opacity="1.000000" stroke="none" 
	d="
M343.434448,209.817596 
	C343.467590,209.799454 343.401337,209.835724 343.434448,209.817596 
z"/>
<path fill="#060606" opacity="1.000000" stroke="none" 
	d="
M143.971283,255.005432 
	C143.613815,254.571747 143.314819,254.094147 143.021896,253.289764 
	C143.027985,252.962952 143.136108,252.868546 143.136108,252.868546 
	C143.423355,253.351227 143.710602,253.833908 144.069122,254.591202 
	C144.140366,254.865814 144.029770,254.961548 143.971283,255.005432 
z"/>
<path fill="#060606" opacity="1.000000" stroke="none" 
	d="
M142.970703,253.006195 
	C142.613770,252.588394 142.314087,252.127350 141.942184,251.396515 
	C141.869965,251.126740 141.975800,251.034653 142.032379,250.993378 
	C142.390060,251.411270 142.691177,251.870407 143.064209,252.599045 
	C143.136108,252.868546 143.027985,252.962952 142.970703,253.006195 
z"/>
<path fill="#060606" opacity="1.000000" stroke="none" 
	d="
M343.609497,236.812408 
	C343.639008,236.838394 343.579956,236.786407 343.609497,236.812408 
z"/>
<path fill="#060606" opacity="1.000000" stroke="none" 
	d="
M296.970520,121.003166 
	C296.765320,120.689247 296.626709,120.326103 296.488098,119.962967 
	C296.677032,120.130066 296.865936,120.297165 297.109467,120.655853 
	C297.164062,120.847435 297.037170,120.953941 296.970520,121.003166 
z"/>
<path fill="#060606" opacity="1.000000" stroke="none" 
	d="
M256.936157,134.028656 
	C256.888916,134.068542 256.597168,133.760071 256.597168,133.760071 
	C256.597168,133.760071 256.927338,133.719696 256.995972,133.807602 
	C257.064575,133.895508 256.983398,133.988785 256.936157,134.028656 
z"/>
<path fill="#060606" opacity="1.000000" stroke="none" 
	d="
M295.066559,215.889389 
	C295.066559,215.889389 295.393738,216.230423 295.393738,216.230423 
	C295.393738,216.230423 295.029724,216.272964 295.006775,216.129639 
	C294.983856,215.986298 295.066559,215.889389 295.066559,215.889389 
z"/>
<path fill="#060606" opacity="1.000000" stroke="none" 
	d="
M294.935425,216.027634 
	C294.886963,216.068970 294.582764,215.745758 294.582764,215.745758 
	C294.582764,215.745758 294.928741,215.701675 294.997650,215.795532 
	C295.066559,215.889389 294.983856,215.986298 294.935425,216.027634 
z"/>
<path fill="#060606" opacity="1.000000" stroke="none" 
	d="
M268.935791,144.028397 
	C268.888336,144.068420 268.595367,143.759186 268.595367,143.759186 
	C268.595367,143.759186 268.927216,143.718033 268.995972,143.806335 
	C269.064728,143.894623 268.983276,143.988373 268.935791,144.028397 
z"/>
<path fill="#060606" opacity="1.000000" stroke="none" 
	d="
M327.048767,185.974533 
	C327.357635,186.093185 327.593201,186.287445 327.932983,186.704590 
	C328.068115,186.889969 327.985199,186.986298 327.936340,187.026581 
	C327.614655,186.918320 327.382294,186.721909 327.061310,186.288330 
	C326.932251,186.098999 327.006409,186.012619 327.048767,185.974533 
z"/>
<path fill="#060606" opacity="1.000000" stroke="none" 
	d="
M314.525574,179.485199 
	C314.541138,179.517578 314.510040,179.452820 314.525574,179.485199 
z"/>
<path fill="#060606" opacity="1.000000" stroke="none" 
	d="
M337.941223,170.029236 
	C337.895752,170.068787 337.593811,169.752792 337.593811,169.752792 
	C337.593811,169.752792 337.928741,169.715546 337.997314,169.807159 
	C338.065857,169.898773 337.986694,169.989670 337.941223,170.029236 
z"/>
<path fill="#060606" opacity="1.000000" stroke="none" 
	d="
M335.057495,167.972855 
	C335.102417,167.933487 335.387482,168.239548 335.387482,168.239548 
	C335.387482,168.239548 335.068542,168.276520 335.001740,168.189758 
	C334.934937,168.102997 335.012573,168.012222 335.057495,167.972855 
z"/>
<path fill="#060606" opacity="1.000000" stroke="none" 
	d="
M329.939728,165.029724 
	C329.893311,165.070084 329.584351,164.747986 329.584351,164.747986 
	C329.584351,164.747986 329.928101,164.708527 329.997498,164.802521 
	C330.066895,164.896515 329.986145,164.989349 329.939728,165.029724 
z"/>
<path fill="#060606" opacity="1.000000" stroke="none" 
	d="
M250.936707,129.029053 
	C250.889816,129.068695 250.599213,128.761154 250.599213,128.761154 
	C250.599213,128.761154 250.927399,128.721985 250.995880,128.809464 
	C251.064377,128.896942 250.983582,128.989410 250.936707,129.029053 
z"/>
<path fill="#060606" opacity="1.000000" stroke="none" 
	d="
M204.938141,152.033356 
	C204.610275,151.934662 204.372101,151.742981 204.049805,151.307419 
	C203.925308,151.113693 204.011459,151.012726 204.062012,150.969543 
	C204.389481,151.070221 204.625793,151.263687 204.947311,151.699310 
	C205.073120,151.891861 204.987473,151.990524 204.938141,152.033356 
z"/>
</svg>